<svg width="366" height="227" viewBox="0 0 366 227" fill="none" xmlns="http://www.w3.org/2000/svg">
<path d="M28.6574 83.7982C28.6574 85.4353 29.1595 86.8925 30.1458 88.1339C31.1321 89.3932 32.4413 90.1847 34.0911 90.5266L37.9647 91.3001V92.5954H6.20491V91.3001L10.0785 90.5266C11.7104 90.1847 13.0196 89.3752 14.0238 88.1339C15.0101 86.8745 15.5123 85.4353 15.5123 83.7982V14.3741C15.5123 12.3053 14.8308 10.5782 13.4499 9.19298C12.0512 7.80774 10.3296 7.12411 8.26724 7.12411H0V5.18117L28.6574 0V83.7982Z" fill="#2B2B2C"/>
<path d="M49.191 38.5171H110.953L95.4947 70.9354C90.9576 81.9813 75.8757 110.999 72.5401 123.557H59.2516C66.1559 110.532 83.7663 82.611 89.2001 69.9279L99.5297 49.4551H56.5257C51.3609 49.4551 48.7606 52.0817 46.8417 57.2269H45.5505L49.191 38.5171Z" fill="#2B2B2C"/>
<path d="M119.435 38.5171H181.198L165.739 70.9354C161.202 81.9813 146.12 110.999 142.785 123.557H129.478C136.382 110.532 153.993 82.611 159.427 69.9279L169.756 49.4551H126.752C121.587 49.4551 118.987 52.0817 117.068 57.2269H115.777L119.435 38.5171Z" fill="#2B2B2C"/>
<path d="M189.68 38.5171H251.442L235.984 70.9354C231.447 81.9813 216.365 110.999 213.029 123.557H199.741C206.645 110.532 224.255 82.611 229.689 69.9279L240.019 49.4551H196.997C191.832 49.4551 189.232 52.0817 187.313 57.2269H186.022L189.68 38.5171Z" fill="#2B2B2C"/>
<path d="M166.116 159.969V180.693H100.534C114.127 168.262 124.026 158.889 130.231 152.593C136.436 146.296 141.242 140.035 144.686 133.811C148.129 127.586 149.85 120.984 149.85 113.986C149.85 106.466 148.165 100.601 144.811 96.3733C141.458 92.1456 136.418 90.0228 129.711 90.0228C125.497 90.0228 122.143 90.7604 119.633 92.2176C117.14 93.6928 115.365 95.4378 114.342 97.4707C113.302 99.5036 112.8 101.429 112.8 103.228C112.8 106.592 113.787 108.984 115.777 110.424C117.75 111.845 119.991 112.564 122.484 112.564C123.435 112.564 124.08 112.528 124.421 112.439C124.421 113.824 124.044 115.443 123.327 117.296C122.592 119.149 121.408 120.768 119.776 122.153C118.144 123.538 116.082 124.222 113.571 124.222C109.608 124.222 106.416 122.891 104.013 120.21C101.61 117.53 100.39 114.04 100.39 109.722C100.39 106.7 101.341 103.479 103.224 100.079C105.125 96.6612 108.353 93.7108 112.908 91.2101C117.463 88.7095 123.488 87.4502 130.985 87.4502C137.1 87.4502 142.713 88.5476 147.842 90.7604C152.953 92.9552 157.024 96.0675 160.036 100.079C163.049 104.091 164.556 108.733 164.556 114.004C164.556 119.005 162.601 124.366 158.673 130.069C154.746 135.772 150.209 141.115 145.044 146.134C139.879 151.135 133.423 156.964 125.676 163.621C121.121 167.417 117.804 170.313 115.741 172.292H155.374C156.916 172.292 158.315 171.842 159.57 170.925C160.825 170.025 161.615 168.784 161.955 167.237L163.767 159.987H166.116V159.969Z" fill="#E08C5A"/>
<path d="M320.288 159.969V180.693H254.688C268.282 168.262 278.181 158.889 284.386 152.593C290.591 146.296 295.397 140.035 298.84 133.811C302.283 127.586 304.005 120.984 304.005 113.986C304.005 106.466 302.319 100.601 298.965 96.3733C295.612 92.1456 290.573 90.0228 283.866 90.0228C279.651 90.0228 276.298 90.7604 273.787 92.2176C271.294 93.6928 269.519 95.4378 268.497 97.4707C267.457 99.5036 266.954 101.429 266.954 103.228C266.954 106.592 267.941 108.984 269.931 110.424C271.904 111.845 274.146 112.564 276.638 112.564C277.589 112.564 278.235 112.528 278.575 112.439C278.575 113.824 278.199 115.443 277.481 117.296C276.746 119.149 275.562 120.768 273.931 122.153C272.299 123.538 270.236 124.222 267.726 124.222C263.762 124.222 260.57 122.891 258.167 120.21C255.764 117.53 254.545 114.04 254.545 109.722C254.545 106.7 255.495 103.479 257.378 100.079C259.279 96.6612 262.507 93.7108 267.062 91.2101C271.617 88.7095 277.643 87.4502 285.139 87.4502C291.254 87.4502 296.867 88.5476 301.996 90.7604C307.107 92.9552 311.178 96.0675 314.191 100.079C317.204 104.091 318.71 108.733 318.71 114.004C318.71 119.005 316.755 124.366 312.828 130.069C308.9 135.772 304.363 141.115 299.199 146.134C294.034 151.135 287.578 156.964 279.831 163.621C275.276 167.417 271.958 170.313 269.896 172.292H309.528C311.07 172.292 312.469 171.842 313.724 170.925C314.98 170.025 315.769 168.784 316.11 167.237L317.921 159.987H320.288V159.969Z" fill="#E08C5A"/>
<path d="M356.693 218.185C356.693 219.822 357.195 221.279 358.181 222.521C359.167 223.78 360.477 224.571 362.126 224.913L366 225.687V226.982H334.24V225.687L338.114 224.913C339.746 224.571 341.055 223.762 342.059 222.521C343.045 221.261 343.548 219.822 343.548 218.185V148.761C343.548 146.692 342.866 144.965 341.485 143.58C340.104 142.194 338.383 141.511 336.32 141.511H328.053V139.568L356.711 134.387V218.185H356.693Z" fill="#E08C5A"/>
<path d="M244.144 152.125C241.131 157.216 236.916 161.246 231.447 164.232C225.995 167.218 219.701 168.712 212.599 168.712C205.497 168.712 199.185 167.2 193.679 164.196C188.174 161.174 183.942 157.126 180.983 152.053C178.024 146.961 176.535 141.402 176.535 135.376C176.535 129.277 178.042 123.7 181.036 118.609C184.031 113.518 188.264 109.488 193.733 106.502C199.185 103.515 205.479 102.022 212.581 102.022C219.683 102.022 225.995 103.533 231.501 106.538C237.006 109.56 241.238 113.608 244.197 118.681C247.156 123.772 248.645 129.331 248.645 135.358C248.663 141.438 247.156 147.033 244.144 152.125ZM231.77 119.958C230.156 115.047 227.735 111.071 224.471 107.995C221.207 104.918 217.262 103.389 212.599 103.389C207.936 103.389 203.991 104.954 200.727 108.103C197.463 111.233 195.024 115.263 193.428 120.156C191.814 125.067 191.025 130.123 191.025 135.376C191.025 140.737 191.832 145.864 193.428 150.775C195.042 155.687 197.463 159.662 200.727 162.739C203.991 165.815 207.936 167.344 212.599 167.344C217.244 167.344 221.207 165.779 224.471 162.631C227.735 159.501 230.156 155.471 231.77 150.577C233.384 145.666 234.173 140.611 234.173 135.358C234.191 129.997 233.384 124.869 231.77 119.958Z" fill="#E08C5A"/>
</svg>
