<svg width="51" height="30" viewBox="0 0 51 30" fill="none" xmlns="http://www.w3.org/2000/svg">
<path d="M50.1958 15.7376L50.7113 14.8831L50.1958 14.0285C50.1144 13.8929 48.0119 10.5018 43.9426 7.11067C38.5305 2.6073 32.1416 0.219971 25.4951 0.219971C18.8485 0.219971 12.4462 2.6073 7.00685 7.11067C2.91041 10.5018 0.794371 13.8793 0.699421 14.0285L0.17041 14.8831L0.699421 15.7376C0.794371 15.8868 2.91041 19.2644 7.00685 22.6419C12.4462 27.1453 18.8485 29.5326 25.4951 29.5326C32.1552 29.5326 38.5305 27.1453 43.9426 22.6419C48.0119 19.2644 50.1009 15.8733 50.1958 15.7376ZM41.7723 20.2139C36.9027 24.2425 31.4227 26.2771 25.4951 26.2771C19.5675 26.2771 14.0603 24.2289 9.16359 20.2139C6.62705 18.1249 4.90438 16.0225 4.06338 14.8831C4.90438 13.7437 6.62705 11.6412 9.16359 9.55226C14.0739 5.52364 19.5675 3.48899 25.4951 3.48899C31.4227 3.48899 36.9027 5.52364 41.7723 9.55226C44.2953 11.6412 46.0044 13.7572 46.8318 14.8831C46.0044 16.0225 44.2953 18.1385 41.7723 20.2139Z" fill="#93959A"/>
<path d="M25.4408 5.10327C20.0422 5.10327 15.6609 9.48456 15.6609 14.8832C15.6609 20.2818 20.0422 24.6631 25.4408 24.6631C30.8394 24.6631 35.2207 20.2818 35.2207 14.8832C35.2207 9.48456 30.8394 5.10327 25.4408 5.10327ZM25.4408 21.4076C21.8462 21.4076 18.9163 18.4777 18.9163 14.8832C18.9163 11.2886 21.8462 8.35872 25.4408 8.35872C29.0354 8.35872 31.9653 11.2886 31.9653 14.8832C31.9653 18.4777 29.0354 21.4076 25.4408 21.4076Z" fill="#93959A"/>
</svg>
