<svg width="260" height="64" viewBox="0 0 260 64" fill="none" xmlns="http://www.w3.org/2000/svg">
<path d="M166.04 55.3001V55.8201H151.72V55.3001L153.44 54.9601C154.16 54.8101 154.75 54.4501 155.19 53.9001C155.63 53.3501 155.85 52.7101 155.85 51.9801L155.91 23.0401C155.41 22.7301 155.01 22.3701 154.71 21.9501C154.4 21.5301 154.25 21.0901 154.25 20.6301C154.9 20.4801 155.41 20.1601 155.77 19.6801C156.13 19.2001 156.31 18.6201 156.31 17.9301C156.31 17.0501 156.05 16.1701 155.54 15.2901C155.03 14.4101 154.26 13.6901 153.25 13.1101C152.24 12.5401 151.06 12.2501 149.73 12.2501C145.49 12.2501 143.37 14.9201 143.37 20.2701V29.4401H153V31.1601H143.37V51.9601C143.37 52.6901 143.59 53.3301 144.03 53.8801C144.47 54.4301 145.05 54.7901 145.78 54.9401L147.5 55.2801V55.8001H133.18V55.3001L134.9 54.9601C135.62 54.8101 136.21 54.4501 136.65 53.9001C137.09 53.3501 137.31 52.7101 137.31 51.9801V31.1801H133.19V29.4601H137.31V20.2901C137.31 18.7201 137.82 17.2201 138.83 15.7601C139.84 14.3101 141.33 13.1201 143.3 12.2101C145.27 11.2901 147.61 10.8301 150.32 10.8301C152.38 10.8301 154.31 11.2301 156.11 12.0301C157.91 12.8301 159.34 13.8601 160.41 15.1201C161.48 16.3801 162.01 17.6201 162.01 18.8401V18.9001L161.95 51.9601C161.95 52.6901 162.17 53.3301 162.61 53.8801C163.05 54.4301 163.63 54.7901 164.36 54.9401L166.04 55.3001Z" fill="#E08C5A"/>
<path d="M259.14 31.7502C259.6 32.4402 259.83 33.1802 259.83 33.9802C259.83 34.8602 259.54 35.7202 258.97 36.5602C258.63 37.1002 258.13 37.5202 257.48 37.8202C256.83 38.1302 256.18 38.2802 255.53 38.2802C254.96 38.2802 254.5 38.1602 254.15 37.9402C254.3 37.4802 254.38 37.1402 254.38 36.9102C254.38 36.3802 254.22 35.8402 253.89 35.3102C253.56 34.7802 253.13 34.3602 252.6 34.0502C251.99 33.6702 251.4 33.4802 250.82 33.4802C249.29 33.4802 247.88 34.9102 246.58 37.7802V59.4002C246.58 60.1302 246.8 60.7702 247.24 61.3202C247.68 61.8702 248.26 62.2302 248.99 62.3802L250.71 62.7202V63.2402H236.4V62.7202L238.12 62.3802C238.84 62.2302 239.43 61.8702 239.87 61.3202C240.31 60.7702 240.53 60.1302 240.53 59.4002V33.3002C240.53 32.5802 240.31 31.9302 239.87 31.3802C239.43 30.8302 238.85 30.4702 238.12 30.3202L236.4 29.9802V29.4602H246.6V35.5302C247.48 33.6202 248.67 32.0802 250.18 30.9202C251.69 29.7602 253.19 29.1702 254.68 29.1702C255.71 29.1702 256.65 29.4602 257.49 30.0302C258.13 30.4902 258.69 31.0602 259.14 31.7502Z" fill="#E08C5A"/>
<path d="M196.82 49.3402C195.49 51.5902 193.61 53.3702 191.19 54.6902C188.77 56.0102 185.98 56.6702 182.83 56.6702C179.68 56.6702 176.88 56.0002 174.44 54.6702C172 53.3402 170.12 51.5502 168.81 49.3002C167.5 47.0502 166.84 44.6002 166.84 41.9302C166.84 39.2402 167.51 36.7702 168.84 34.5202C170.17 32.2702 172.05 30.4902 174.47 29.1702C176.89 27.8502 179.68 27.1902 182.83 27.1902C185.98 27.1902 188.78 27.8602 191.22 29.1902C193.66 30.5202 195.53 32.3102 196.85 34.5602C198.16 36.8102 198.82 39.2602 198.82 41.9302C198.81 44.6302 198.15 47.1002 196.82 49.3402ZM191.33 35.1302C190.62 32.9602 189.54 31.2002 188.09 29.8402C186.64 28.4802 184.89 27.8002 182.83 27.8002C180.77 27.8002 179.01 28.4902 177.57 29.8802C176.12 31.2702 175.05 33.0402 174.33 35.2102C173.62 37.3802 173.26 39.6202 173.26 41.9302C173.26 44.3002 173.62 46.5702 174.33 48.7302C175.04 50.9002 176.12 52.6602 177.57 54.0202C179.01 55.3802 180.77 56.0602 182.83 56.0602C184.89 56.0602 186.65 55.3702 188.09 53.9802C189.53 52.5902 190.61 50.8202 191.33 48.6502C192.04 46.4802 192.4 44.2402 192.4 41.9302C192.4 39.5702 192.04 37.3002 191.33 35.1302Z" fill="#E08C5A"/>
<path d="M233.63 49.3402C232.3 51.5902 230.42 53.3702 228 54.6902C225.58 56.0102 222.79 56.6702 219.64 56.6702C216.49 56.6702 213.69 56.0002 211.25 54.6702C208.81 53.3402 206.93 51.5502 205.62 49.3002C204.31 47.0502 203.65 44.6002 203.65 41.9302C203.65 39.2402 204.32 36.7702 205.65 34.5202C206.98 32.2702 208.86 30.4902 211.28 29.1702C213.7 27.8502 216.49 27.1902 219.64 27.1902C222.79 27.1902 225.59 27.8602 228.03 29.1902C230.47 30.5202 232.34 32.3102 233.66 34.5602C234.97 36.8102 235.63 39.2602 235.63 41.9302C235.63 44.6302 234.96 47.1002 233.63 49.3402ZM228.14 35.1302C227.43 32.9602 226.35 31.2002 224.9 29.8402C223.45 28.4802 221.7 27.8002 219.64 27.8002C217.58 27.8002 215.82 28.4902 214.38 29.8802C212.93 31.2702 211.86 33.0402 211.14 35.2102C210.43 37.3802 210.07 39.6202 210.07 41.9302C210.07 44.3002 210.43 46.5702 211.14 48.7302C211.85 50.9002 212.93 52.6602 214.38 54.0202C215.82 55.3802 217.58 56.0602 219.64 56.0602C221.7 56.0602 223.46 55.3702 224.9 53.9802C226.34 52.5902 227.42 50.8202 228.14 48.6502C228.85 46.4802 229.21 44.2402 229.21 41.9302C229.21 39.5702 228.86 37.3002 228.14 35.1302Z" fill="#E08C5A"/>
<path d="M31.1 17.38C30.87 17.95 30.76 18.69 30.76 19.6C30.76 20.7 30.91 21.73 31.22 22.7C31.52 23.66 31.88 24.15 32.3 24.15C31.55 24.68 30.84 24.94 30.2 24.94C29.37 24.94 28.7 24.58 28.18 23.84C27.68 23.1 27.09 21.97 26.45 20.46C26.03 19.36 25.65 18.54 25.29 17.98C24.93 17.43 24.52 17.15 24.07 17.15H13.48C12.83 17.15 12.31 17.45 11.89 18.04C11.47 18.63 11.26 19.3 11.26 20.06V34.21H12.4C14.14 34.21 15.81 33.81 17.4 32.99C18.99 32.18 20.28 31.07 21.27 29.67L21.67 29.1H22.35V40.47H21.67L21.27 39.9C20.28 38.5 18.99 37.4 17.4 36.58C15.81 35.77 14.14 35.36 12.4 35.36H11.26V51.96C11.26 52.72 11.49 53.36 11.95 53.89C12.41 54.42 12.99 54.77 13.71 54.91L15.7 55.31V55.82H0V55.3L1.99 54.9C2.71 54.76 3.3 54.41 3.75 53.88C4.21 53.35 4.44 52.71 4.44 51.95V19.89C4.44 19.13 4.21 18.49 3.75 17.96C3.3 17.43 2.71 17.09 1.99 16.94L0 16.53V16.02H32.12V16.53C31.67 16.53 31.33 16.82 31.1 17.38Z" fill="#E08C5A"/>
<path d="M31.67 54.96C32.38 54.82 32.97 54.46 33.4 53.91C33.84 53.36 34.06 52.73 34.06 52.01V33.48C34.06 32.76 33.84 32.13 33.4 31.58C32.96 31.03 32.38 30.68 31.67 30.52L29.97 30.19V29.68H40.08V52.02C40.08 52.74 40.3 53.37 40.74 53.92C41.18 54.47 41.76 54.82 42.47 54.97L44.17 55.31V55.82H29.97V55.3L31.67 54.96ZM39.09 5.31C38.5 5.94 37.72 6.25 36.73 6.25C35.75 6.25 34.96 5.94 34.37 5.31C33.79 4.68 33.49 3.96 33.49 3.12C33.49 2.29 33.79 1.56 34.37 0.93C34.96 0.31 35.75 0 36.73 0C37.72 0 38.5 0.31 39.09 0.93C39.68 1.56 39.97 2.29 39.97 3.12C39.97 3.96 39.68 4.69 39.09 5.31Z" fill="#E08C5A"/>
<path d="M68.2 46.4101C68.98 45.4101 70.05 44.9101 71.42 44.9101C72.93 44.9101 73.96 45.3001 74.52 46.0701C75.07 46.8501 75.33 47.6701 75.29 48.5501C74.53 48.7001 73.83 49.0701 73.21 49.6501C72.58 50.2401 72.27 50.9001 72.27 51.6101C72.27 52.6001 72.83 53.4401 73.95 54.1401C75.07 54.8401 76.54 55.1901 78.36 55.1901C80.26 55.1901 81.91 54.7501 83.33 53.8601C84.76 52.9701 85.46 51.8201 85.46 50.4201C85.46 49.5101 85.12 48.6801 84.44 47.9201C83.75 47.1701 82.68 46.4101 81.19 45.6401C80.67 45.3801 79.87 45.0201 78.81 44.5601C78.05 44.2601 77.48 44.0101 77.11 43.8201C73.61 42.4201 71.18 40.8501 69.78 39.1101C68.87 38.0801 68.41 36.8301 68.41 35.3601C68.41 34.5201 68.65 33.7201 69.12 32.9401C69.6 32.1701 70.26 31.4501 71.14 30.8101C71.89 30.2501 72.96 29.7701 74.32 29.3901C75.68 29.0101 77.07 28.8201 78.47 28.8201C80.78 28.8201 82.76 29.1201 84.41 29.7301C86.06 30.3401 87.31 31.1501 88.16 32.1801C89.01 33.2001 89.44 34.2801 89.44 35.4201C89.44 36.2501 89.12 37.0301 88.48 37.7501C87.83 38.4601 86.98 38.8301 85.92 38.8301C85.58 38.8301 85.31 38.8101 85.12 38.7701C84.37 38.6201 83.7 38.2101 83.13 37.5501C82.57 36.8801 82.32 36.2601 82.4 35.7001C83.04 35.6601 83.61 35.4001 84.1 34.9001C84.59 34.4001 84.84 33.8201 84.84 33.1401C84.84 32.1601 84.3 31.3801 83.21 30.8101C82.13 30.2501 80.86 29.9601 79.37 29.9601C77.82 29.9601 76.44 30.3801 75.23 31.2101C74.01 32.0501 73.41 33.0501 73.41 34.2201C73.41 35.0601 73.75 35.8201 74.46 36.5001C75.16 37.1901 76.25 37.8701 77.73 38.5501C78.49 38.9301 79.91 39.5401 82 40.3701C85.52 41.7701 88.01 43.4301 89.45 45.3201C90.36 46.3801 90.81 47.7001 90.81 49.2901C90.81 50.2001 90.55 51.1001 90.02 51.9701C89.49 52.8501 88.72 53.6401 87.74 54.3601C86.84 55.0401 85.61 55.6001 84.07 56.0401C82.54 56.4801 80.97 56.7001 79.37 56.7001C77.51 56.7001 75.64 56.4401 73.74 55.9301C71.84 55.4201 70.25 54.6301 68.97 53.5701C67.68 52.5101 67.04 51.1801 67.04 49.5901C67.03 48.4701 67.43 47.4101 68.2 46.4101Z" fill="#E08C5A"/>
<path d="M109.56 29.67V31.37H101.71V48.37C101.71 50.34 102.13 51.93 102.97 53.14C103.8 54.36 104.88 54.96 106.21 54.96C107.72 54.96 108.89 54.56 109.68 53.74C110.48 52.93 110.97 51.63 111.16 49.84H113.32C113.17 51.93 112.39 53.58 110.97 54.82C109.54 56.05 107.73 56.67 105.53 56.67C102.58 56.67 100.2 55.96 98.3999 54.54C96.5999 53.11 95.6999 51.26 95.6999 49V31.37H89.8999V29.67C91.5999 29.67 93.1699 29.24 94.5899 28.39C96.0099 27.53 97.1499 26.35 97.9999 24.83C98.8599 23.32 99.2899 21.63 99.2899 19.77H101.73V29.66H109.56V29.67Z" fill="#E08C5A"/>
<path d="M66.96 31.9101C67.42 32.6001 67.65 33.3401 67.65 34.1401C67.65 35.0201 67.36 35.8801 66.79 36.7201C66.45 37.2601 65.95 37.6801 65.3 37.9801C64.65 38.2901 64 38.4401 63.35 38.4401C62.78 38.4401 62.32 38.3201 61.97 38.1001C62.12 37.6401 62.2 37.3001 62.2 37.0701C62.2 36.5401 62.04 36.0001 61.71 35.4701C61.38 34.9401 60.95 34.5201 60.42 34.2101C59.81 33.8301 59.22 33.6401 58.64 33.6401C57.11 33.6401 55.7 35.0701 54.4 37.9401V59.5601C54.4 60.2901 54.62 60.9301 55.06 61.4801C55.5 62.0301 56.08 62.3901 56.81 62.5401L58.53 62.8801V63.4001H44.21V62.8801L45.93 62.5401C46.65 62.3901 47.24 62.0301 47.68 61.4801C48.12 60.9301 48.34 60.2901 48.34 59.5601V33.4601C48.34 32.7401 48.12 32.0901 47.68 31.5401C47.24 30.9901 46.66 30.6301 45.93 30.4801L44.21 30.1401V29.6201H54.41V35.6901C55.29 33.7801 56.48 32.2401 57.99 31.0801C59.5 29.9201 61 29.3301 62.49 29.3301C63.52 29.3301 64.46 29.6201 65.3 30.1901C65.94 30.6501 66.5 31.2301 66.96 31.9101Z" fill="#E08C5A"/>
</svg>
