<svg width="272" height="259" viewBox="0 0 272 259" fill="none" xmlns="http://www.w3.org/2000/svg">
<path d="M75 243.723H77.8V254.823H78.7V243.023H75V243.723Z" fill="#E08C5A"/>
<path d="M92.1999 248.623C92.8999 248.423 93.3999 248.023 93.7999 247.623C94.1999 247.223 94.2999 246.623 94.2999 246.023C94.2999 245.123 93.8999 244.323 93.1999 243.823C92.4999 243.323 91.4999 243.023 90.2999 243.023C89.0999 243.023 88.0999 243.323 87.3999 243.823C86.6999 244.323 86.2999 245.123 86.2999 246.023C86.2999 246.723 86.4999 247.223 86.7999 247.723C87.1999 248.223 87.6999 248.523 88.3999 248.723C87.5999 248.923 86.9999 249.323 86.4999 249.823C85.9999 250.323 85.8999 250.923 85.8999 251.723C85.8999 252.723 86.2999 253.523 87.0999 254.123C87.8999 254.723 88.9999 255.023 90.3999 255.023C91.7999 255.023 92.8999 254.723 93.6999 254.123C94.4999 253.523 94.8999 252.723 94.8999 251.723C94.8999 251.023 94.6999 250.423 94.1999 249.823C93.5999 249.223 92.9999 248.823 92.1999 248.623ZM87.8999 247.623C87.2999 247.223 87.0999 246.623 87.0999 245.923C87.0999 245.223 87.3999 244.623 87.9999 244.223C88.5999 243.823 89.2999 243.623 90.2999 243.623C91.2999 243.623 92.0999 243.823 92.5999 244.223C93.1999 244.623 93.4999 245.223 93.4999 245.923C93.4999 246.623 93.1999 247.223 92.5999 247.623C91.9999 248.023 91.1999 248.223 90.1999 248.223C89.1999 248.223 88.4999 248.123 87.8999 247.623ZM92.8999 253.423C92.2999 253.923 91.3999 254.123 90.1999 254.123C88.9999 254.123 88.1999 253.923 87.5999 253.423C86.9999 252.923 86.6999 252.323 86.6999 251.523C86.6999 250.723 86.9999 250.123 87.6999 249.623C88.2999 249.123 89.1999 248.923 90.2999 248.923C91.3999 248.923 92.2999 249.123 92.9999 249.623C93.6999 250.123 93.9999 250.723 93.9999 251.523C93.8999 252.323 93.5999 253.023 92.8999 253.423Z" fill="#E08C5A"/>
<path d="M104.3 254.123C103.8 254.123 103.4 254.023 103.1 253.723C102.8 253.423 102.7 253.023 102.7 252.423V246.723H105.5V246.023H102.7V244.123H101.9V246.023H100.3V246.723H101.9V252.423C101.9 253.223 102.1 253.723 102.5 254.223C102.9 254.623 103.5 254.823 104.3 254.823C104.6 254.823 105 254.723 105.3 254.623C105.6 254.523 105.9 254.323 106.1 254.123L105.7 253.523C105.3 253.923 104.8 254.123 104.3 254.123Z" fill="#E08C5A"/>
<path d="M116.8 245.923C116 245.923 115.3 246.123 114.7 246.423C114.1 246.723 113.7 247.223 113.4 247.823V242.323H112.6V254.823H113.4V250.123C113.4 249.123 113.7 248.223 114.3 247.623C114.9 247.023 115.7 246.723 116.7 246.723C117.6 246.723 118.3 247.023 118.8 247.523C119.3 248.023 119.6 248.823 119.6 249.823V254.923H120.4V249.823C120.4 248.623 120.1 247.723 119.4 247.023C118.8 246.223 117.9 245.923 116.8 245.923Z" fill="#E08C5A"/>
<path d="M137.7 242.323H136.9V258.123H137.7V242.323Z" fill="#E08C5A"/>
<path d="M158.8 249.723C159.5 249.023 160 248.323 160.3 247.823C160.6 247.323 160.7 246.723 160.7 246.123C160.7 245.123 160.4 244.423 159.7 243.823C159 243.223 158.1 243.023 156.9 243.023C156 243.023 155.2 243.123 154.5 243.423C153.8 243.723 153.2 244.123 152.8 244.623L153.4 245.123C153.8 244.623 154.3 244.323 154.8 244.123C155.4 243.923 156 243.823 156.7 243.823C157.7 243.823 158.4 244.023 158.9 244.423C159.4 244.823 159.7 245.423 159.7 246.223C159.7 246.723 159.6 247.223 159.4 247.623C159.2 248.123 158.7 248.623 158.1 249.323L153.1 254.323V254.923H161.2V254.123H154.4L158.8 249.723Z" fill="#E08C5A"/>
<path d="M166.4 243.723H169.2V254.823H170.1V243.023H166.4V243.723Z" fill="#E08C5A"/>
<path d="M180.8 254.123C180.3 254.123 179.9 254.023 179.6 253.723C179.3 253.423 179.2 253.023 179.2 252.423V246.723H182V246.023H179.2V244.123H178.4V246.023H176.8V246.723H178.4V252.423C178.4 253.223 178.6 253.723 179 254.223C179.4 254.623 180 254.823 180.8 254.823C181.1 254.823 181.5 254.723 181.8 254.623C182.1 254.523 182.4 254.323 182.6 254.123L182.2 253.523C181.8 253.923 181.4 254.123 180.8 254.123Z" fill="#E08C5A"/>
<path d="M193.4 245.923C192.6 245.923 191.9 246.123 191.3 246.423C190.7 246.723 190.3 247.223 190 247.823V242.323H189.2V254.823H190V250.123C190 249.123 190.3 248.223 190.9 247.623C191.5 247.023 192.3 246.723 193.3 246.723C194.2 246.723 194.9 247.023 195.4 247.523C195.9 248.023 196.2 248.823 196.2 249.823V254.923H197V249.823C197 248.623 196.7 247.723 196 247.023C195.3 246.223 194.5 245.923 193.4 245.923Z" fill="#E08C5A"/>
<path d="M6.6 179.223C7.4 178.823 8.4 178.523 9.4 178.523C11.1 178.523 12.5 179.123 13.7 180.423L16.2 178.123C15.4 177.223 14.4 176.423 13.2 175.923C12 175.423 10.7 175.223 9.2 175.223C7.4 175.223 5.9 175.623 4.5 176.323C3.1 177.023 2 178.123 1.2 179.423C0.4 180.723 0 182.223 0 183.923C0 185.623 0.4 187.023 1.2 188.423C2 189.723 3.1 190.723 4.5 191.523C5.9 192.223 7.5 192.623 9.2 192.623C10.4 192.623 11.6 192.423 12.8 192.023C14 191.623 15 191.123 16 190.423V183.623H12.5V188.523C11.6 189.023 10.6 189.223 9.5 189.223C8.4 189.223 7.5 189.023 6.7 188.523C5.9 188.023 5.2 187.423 4.8 186.623C4.3 185.823 4.1 184.923 4.1 183.823C4.1 182.723 4.3 181.823 4.8 181.023C5.3 180.223 5.7 179.723 6.6 179.223Z" fill="#E08C5A"/>
<path d="M37.9 184.923C38.5 184.023 38.7999 182.923 38.7999 181.723C38.7999 180.523 38.5 179.423 37.9 178.523C37.3 177.623 36.5 176.923 35.4 176.423C34.3 175.923 33 175.723 31.5 175.723H24.2V192.523H28.1V187.823H31.5H31.7L34.9 192.523H39.0999L35.2999 187.123C36.4999 186.523 37.3 185.823 37.9 184.923ZM34 183.823C33.4 184.323 32.4999 184.623 31.2999 184.623H28.1V178.823H31.2999C32.4999 178.823 33.3 179.123 34 179.623C34.6 180.123 34.9 180.823 34.9 181.823C34.9 182.623 34.6 183.323 34 183.823Z" fill="#E08C5A"/>
<path d="M51.8999 175.623L44.3999 192.423H48.3999L49.8999 188.823H57.6999L59.1999 192.423H63.2999L55.7999 175.623H51.8999ZM51.1999 185.823L53.8999 179.423L56.5999 185.823H51.1999Z" fill="#E08C5A"/>
<path d="M79.2 191.923C80.3 191.423 81.1 190.823 81.6 190.023C82.1 189.223 82.4 188.323 82.4 187.423C82.4 186.323 82.1 185.423 81.5 184.723C80.9 184.023 80.2 183.623 79.4 183.323C78.6 183.023 77.5 182.723 76.3 182.423C75.1 182.123 74.2 181.923 73.6 181.623C73 181.323 72.7 180.923 72.7 180.323C72.7 179.723 73 179.323 73.5 178.923C74 178.523 74.8 178.423 75.9 178.423C77.4 178.423 79 178.823 80.5 179.723L81.7 176.823C80.9 176.323 80 176.023 79 175.723C78 175.423 76.9 175.323 75.9 175.323C74.4 175.323 73.1 175.523 72 176.023C70.9 176.523 70.1 177.123 69.6 177.923C69.1 178.723 68.8 179.623 68.8 180.523C68.8 181.623 69.1 182.523 69.7 183.223C70.3 183.923 71 184.423 71.8 184.723C72.6 185.023 73.7 185.323 74.9 185.623C75.7 185.823 76.4 186.023 76.9 186.123C77.4 186.323 77.8 186.523 78.1 186.723C78.4 187.023 78.6 187.323 78.6 187.723C78.6 188.223 78.3 188.723 77.8 189.023C77.3 189.323 76.5 189.523 75.4 189.523C74.4 189.523 73.4 189.323 72.4 189.023C71.4 188.723 70.6 188.323 69.8 187.723L68.5 190.623C69.2 191.223 70.2 191.623 71.5 192.023C72.7 192.423 74 192.523 75.3 192.523C76.8 192.623 78.1 192.423 79.2 191.923Z" fill="#E08C5A"/>
<path d="M97.8 189.023C97.3 189.323 96.5 189.523 95.4 189.523C94.4 189.523 93.4 189.323 92.4 189.023C91.4 188.723 90.6 188.323 89.8 187.723L88.5 190.623C89.2 191.223 90.2 191.623 91.5 192.023C92.7 192.423 94 192.523 95.3 192.523C96.8 192.523 98.1 192.323 99.2 191.823C100.3 191.323 101.1 190.723 101.6 189.923C102.1 189.123 102.4 188.223 102.4 187.323C102.4 186.223 102.1 185.323 101.5 184.623C100.9 183.923 100.2 183.523 99.4 183.223C98.6 182.923 97.5 182.623 96.3 182.323C95.1 182.023 94.2 181.823 93.6 181.523C93 181.223 92.7 180.823 92.7 180.223C92.7 179.623 93 179.223 93.5 178.823C94 178.423 94.8 178.323 95.9 178.323C97.4 178.323 99 178.723 100.5 179.623L101.7 176.723C100.9 176.223 100 175.923 99 175.623C98 175.323 96.9 175.223 95.9 175.223C94.4 175.223 93.1 175.423 92 175.923C90.9 176.423 90.1 177.023 89.6 177.823C89.1 178.623 88.8 179.523 88.8 180.423C88.8 181.523 89.1 182.423 89.7 183.123C90.3 183.823 91 184.323 91.8 184.623C92.6 184.923 93.7 185.223 94.9 185.523C95.7 185.723 96.4 185.923 96.9 186.023C97.4 186.223 97.8 186.423 98.1 186.623C98.4 186.923 98.6 187.223 98.6 187.623C98.6 188.223 98.3 188.723 97.8 189.023Z" fill="#E08C5A"/>
<path d="M120.9 188.723L122.4 192.323H126.5L119 175.523H115.2L107.7 192.323H111.7L113.2 188.723H120.9ZM117.1 179.423L119.8 185.823H114.5L117.1 179.423Z" fill="#E08C5A"/>
<path d="M133 175.623V192.323H145.3V189.223H136.9V175.623H133Z" fill="#E08C5A"/>
<path d="M152.3 175.623V192.323H156.1V188.123L158.4 185.723L163.7 192.323H168.3L160.9 183.023L167.9 175.623H163.5L156.1 183.423V175.623H152.3Z" fill="#E08C5A"/>
<path d="M177.6 191.523C179 192.323 180.6 192.623 182.3 192.623C184 192.623 185.6 192.223 187 191.523C188.4 190.723 189.5 189.723 190.3 188.423C191.1 187.123 191.5 185.623 191.5 184.023C191.5 182.423 191.1 180.923 190.3 179.623C189.5 178.323 188.4 177.323 187 176.523C185.6 175.723 184 175.423 182.3 175.423C180.6 175.423 179 175.823 177.6 176.523C176.2 177.223 175.1 178.323 174.3 179.623C173.5 180.923 173.1 182.423 173.1 184.023C173.1 185.623 173.5 187.123 174.3 188.423C175.1 189.723 176.2 190.723 177.6 191.523ZM177.7 181.223C178.2 180.423 178.8 179.823 179.6 179.323C180.4 178.823 181.3 178.623 182.3 178.623C183.3 178.623 184.2 178.823 185 179.323C185.8 179.823 186.4 180.423 186.9 181.223C187.4 182.023 187.6 182.923 187.6 184.023C187.6 185.123 187.4 186.023 186.9 186.823C186.4 187.623 185.8 188.223 185 188.723C184.2 189.223 183.3 189.423 182.3 189.423C181.3 189.423 180.4 189.223 179.6 188.723C178.8 188.223 178.2 187.623 177.7 186.823C177.2 186.023 177 185.123 177 184.023C177 182.923 177.3 182.023 177.7 181.223Z" fill="#E08C5A"/>
<path d="M205.7 187.523L200.6 175.623H196.4L203.6 192.323H207.5L214.7 175.623H210.9L205.7 187.523Z" fill="#E08C5A"/>
<path d="M224.8 175.623H220.9V192.423H224.8V175.623Z" fill="#E08C5A"/>
<path d="M239 179.323C239.8 178.823 240.7 178.623 241.8 178.623C243.5 178.623 244.9 179.323 246 180.623L248.5 178.323C247.7 177.323 246.7 176.623 245.5 176.123C244.3 175.623 243 175.323 241.6 175.323C239.9 175.323 238.3 175.723 236.9 176.423C235.5 177.123 234.4 178.223 233.6 179.523C232.8 180.823 232.4 182.323 232.4 184.023C232.4 185.723 232.8 187.123 233.6 188.523C234.4 189.923 235.5 190.823 236.9 191.623C238.3 192.423 239.8 192.723 241.5 192.723C243 192.723 244.3 192.423 245.4 191.923C246.6 191.423 247.6 190.623 248.4 189.723L245.9 187.423C244.8 188.723 243.4 189.423 241.7 189.423C240.7 189.423 239.7 189.223 238.9 188.723C238.1 188.223 237.5 187.623 237 186.823C236.5 186.023 236.3 185.123 236.3 184.023C236.3 182.923 236.5 182.023 237 181.223C237.5 180.323 238.2 179.723 239 179.323Z" fill="#E08C5A"/>
<path d="M267.3 175.623V182.223H259.7V175.623H255.9V192.323H259.7V185.423H267.3V192.323H271.2V175.623H267.3Z" fill="#E08C5A"/>
<path d="M89.3001 216.923C89.9001 216.023 90.2001 214.923 90.2001 213.723C90.2001 212.523 89.9001 211.423 89.3001 210.523C88.7001 209.623 87.9001 208.923 86.8001 208.423C85.7001 207.923 84.4001 207.723 82.9001 207.723H75.6001V224.523H79.5001V219.923H82.9001C84.4001 219.923 85.7001 219.723 86.8001 219.223C87.8001 218.523 88.7001 217.823 89.3001 216.923ZM85.3001 215.823C84.7001 216.323 83.8001 216.623 82.6001 216.623H79.4001V210.823H82.6001C83.8001 210.823 84.7001 211.123 85.3001 211.623C85.9001 212.123 86.2001 212.823 86.2001 213.823C86.2001 214.623 85.9001 215.323 85.3001 215.823Z" fill="#E08C5A"/>
<path d="M105.9 207.623H102.1L94.6001 224.423H98.6001L100.1 220.823H107.9L109.4 224.423H113.5L105.9 207.623ZM101.4 217.823L104.1 211.423L106.8 217.823H101.4Z" fill="#E08C5A"/>
<path d="M123.9 207.623H120V224.323H132.3V221.223H123.9V207.623Z" fill="#E08C5A"/>
<path d="M148.5 207.623H144.7L137.2 224.423H141.2L142.7 220.823H150.5L152 224.423H156.1L148.5 207.623ZM143.9 217.823L146.6 211.423L149.3 217.823H143.9Z" fill="#E08C5A"/>
<path d="M174.7 219.323C173.6 220.623 172.2 221.323 170.5 221.323C169.5 221.323 168.5 221.123 167.7 220.623C166.9 220.123 166.3 219.523 165.8 218.723C165.3 217.923 165.1 217.023 165.1 215.923C165.1 214.823 165.3 213.923 165.8 213.123C166.3 212.323 166.9 211.723 167.7 211.223C168.5 210.723 169.4 210.523 170.5 210.523C172.2 210.523 173.6 211.223 174.7 212.523L177.2 210.223C176.4 209.223 175.4 208.523 174.2 208.023C173 207.523 171.7 207.223 170.3 207.223C168.6 207.223 167 207.623 165.6 208.323C164.2 209.023 163.1 210.123 162.3 211.423C161.5 212.723 161.1 214.223 161.1 215.923C161.1 217.623 161.5 219.023 162.3 220.423C163.1 221.723 164.2 222.723 165.6 223.523C167 224.223 168.5 224.623 170.2 224.623C171.7 224.623 173 224.323 174.1 223.823C175.2 223.323 176.3 222.523 177.1 221.623L174.7 219.323Z" fill="#E08C5A"/>
<path d="M188.4 217.323H196.2V214.323H188.4V210.723H197.2V207.623H184.6V224.323H197.5V221.223H188.4V217.323Z" fill="#E08C5A"/>
<path d="M36.5 145.223C35.5 145.023 34.8 144.923 34.4 144.823C34.1 143.623 33.6 141.523 33.3 139.423C37.2 138.523 42.1 135.323 42.2 127.623L38.2 127.523C38.1 135.123 31.7 135.623 31 135.623L28.8 135.723L29.1 137.923C29.7 142.323 30.9 146.723 30.9 146.923L31 147.323L31.3 147.623C31.8 148.223 32 148.423 36 149.023C36.8 149.123 37.4 149.623 37.8 150.223H28.9L23.9 128.523C29.3 124.723 30.3 119.023 28.9 115.223C28.6 114.523 28.3 113.923 28 113.323C26.7 110.823 26 109.223 34.7 104.023C39.6 101.123 42.8 98.3231 44.7 96.2231C45.8 97.0231 46.7 97.3231 46.8 97.3231L48 93.5231C48 93.5231 44 92.2231 44.3 85.2231C44.5 80.4231 51.1 76.7231 56.5 73.7231C59.3 72.2231 61.7 70.8231 63.1 69.4231C66.1 66.7231 66.1 61.5231 66 60.9231L62 61.0231C62 61.1231 62 61.2231 62 61.3231C57.8 57.3231 52.5 57.4231 49.8 58.1231L50.9 61.9231C51.2 61.8231 56.9 60.3231 60.7 65.9231C60.6 66.1231 60.4 66.2231 60.3 66.4231L60 66.7231C59.1 67.7231 56.8 69.0231 54.3 70.3231C48.1 73.8231 40.3 78.1231 40.1 85.1231C40 88.8231 40.8 91.5231 41.9 93.3231C40.3 95.1231 37.2999 97.8231 32.6 100.623C28 103.423 25.4 105.623 24.2 107.623C20.4 105.323 18.4 100.723 19.7 96.7231L19.8 96.5231V96.3231C19.8 96.3231 20.5 91.9231 29.6 85.9231C38.7 79.5231 40.4 72.8231 40.7 71.6231C42.3 66.6231 39.6 61.1231 34.6 59.4231L33.3 63.2231C36.3 64.2231 37.9 67.5231 36.9 70.5231L36.8 70.8231C36.8 70.9231 35.6 76.8231 27.4 82.6231C17.7 89.0231 16.2 94.2231 15.9 95.6231C13.9 101.823 17.3 108.723 23.3 111.623C23.4 112.723 23.9 113.823 24.5 115.023C24.8 115.523 25 116.023 25.2 116.623C25.9 118.523 25.9 122.823 20.7 125.823L19.4 126.523L25.8 154.123H43L42.7 151.823C42.3 149.823 40.6 145.923 36.5 145.223Z" fill="#E08C5A"/>
<path d="M64.8 71.5231L67.4 74.5231C75.7 67.3231 73.6 58.8231 73.5 58.5231L69.6 59.5231C69.8 59.8231 71.2 66.0231 64.8 71.5231Z" fill="#E08C5A"/>
<path d="M58.6 81.5231L57.3 80.0231L56 78.5231C53.3 80.8231 49.4 87.4231 53.7 95.4231L57.2 93.5231C53.3 86.3231 58.3 81.7231 58.6 81.5231Z" fill="#E08C5A"/>
<path d="M60.0057 51.7839L57.6016 54.1881L60.0057 56.5922L62.4098 54.1881L60.0057 51.7839Z" fill="#E08C5A"/>
<path d="M56 50.6231V50.4231L60.2999 47.0231H65C66.4 47.1231 84.4 49.0231 84.4 67.9231H88.4C88.4 44.8231 65.3999 43.0231 65.1999 43.0231H58.9L54.5999 46.4231C48.3999 46.5231 43.1 51.0231 42.2 57.3231L46.2 57.9231C46.8 53.2231 51.2 49.9231 56 50.6231Z" fill="#E08C5A"/>
<path d="M26.5 128.023L26.7 130.023L26.9 132.023C27.2 132.023 33.3 131.423 35.7 124.523L31.9 123.223C30.3 127.523 26.6 128.023 26.5 128.023Z" fill="#E08C5A"/>
<path d="M256.2 126.023C251 122.923 251 118.623 251.7 116.823C251.9 116.323 252.2 115.823 252.4 115.223C253.1 113.923 253.5 112.623 253.6 111.423C255.9 110.123 257.9 108.123 259.2 105.823C261 102.623 261.4 99.0231 260.3 95.8231C260.1 94.4231 258.6 89.2231 248.9 82.8231C240.6 76.9231 239.4 71.0231 239.4 70.9231L239.3 70.6231C238.3 67.6231 239.9 64.4231 242.9 63.3231L241.6 59.5231C236.6 61.2231 233.8 66.6231 235.5 71.7231C235.8 72.9231 237.5 79.6231 246.7 86.1231C255.7 92.0231 256.4 96.4231 256.4 96.4231V96.6231L256.5 96.8231C257.3 99.0231 257 101.523 255.7 103.823C254.9 105.223 253.8 106.523 252.4 107.423C251.1 105.423 248.5 103.323 244.1 100.723C239.4 97.9231 236.4 95.2231 234.8 93.4231C235.9 91.5231 236.7 88.9231 236.6 85.2231C236.3 78.2231 228.6 73.8231 222.4 70.4231C220 69.1231 217.7 67.8231 216.7 66.8231L216.6 66.7231C215.2 65.4231 214.9 62.2231 214.9 61.2231L210.9 61.1231C210.9 61.7231 210.8 66.9231 213.8 69.6231C215.2 71.0231 217.6 72.4231 220.4 73.9231C225.7 76.9231 232.4 80.6231 232.6 85.4231C232.9 92.3231 229 93.7231 228.8 93.8231L229.4 95.7231L230 97.6231C230.1 97.6231 231 97.3231 232.1 96.5231C234 98.5231 237.2 101.423 242.1 104.323C250.8 109.523 250 111.123 248.8 113.623C248.5 114.223 248.2 114.823 247.9 115.523C246.4 119.323 247.5 124.923 252.9 128.823L247.9 150.523H239C239.4 149.923 240 149.423 240.8 149.323C244.8 148.623 245 148.523 245.5 147.923L245.8 147.623L245.9 147.223C245.9 147.023 247.1 142.523 247.7 138.223L248 136.023L245.8 135.923C245.5 135.923 238.7 135.623 238.6 127.823L234.6 127.923C234.7 135.623 239.6 138.723 243.5 139.723C243.1 141.923 242.7 143.923 242.4 145.123C241.9 145.223 241.3 145.323 240.3 145.523C236.2 146.223 234.5 150.123 234.2 152.423L233.9 154.723H251.2L257.6 127.123L256.2 126.023Z" fill="#E08C5A"/>
<path d="M229.5 130.723L233.3 129.423C233.3 129.323 231.3 123.423 236.7 119.323L234.3 116.123C233.5 116.723 232.8 117.423 232.2 118.123C230.9 115.623 228.4 112.623 223.4 111.223C220.8 110.423 218.4 109.623 216.2 108.623V108.423C216.1 108.423 216 108.423 215.8 108.423C212.9 107.123 210.5 105.523 208.5 103.823C211.2 102.623 213.3 102.123 213.3 102.123L212.6 98.2231C212.5 98.2231 211.6 98.4231 210.4 98.8231C209.1 99.2231 207.4 99.8231 205.6 100.823C204.5 101.423 203.3 102.123 202.2 103.023C201.7 103.423 201.2 103.823 200.8 104.223C200.1 104.823 199.5 105.423 198.9 106.123L181.9 100.923V93.5231C183.4 94.5231 183.6 97.3231 183.6 97.4231V99.3231L185.5 99.4231C186.1 99.4231 186.6 99.4231 187.2 99.4231C191 99.4231 194.6 98.8231 197.6 98.1231C198.1 98.0231 198.7 97.8231 199.2 97.7231C200.5 97.3231 201.7 96.9231 202.8 96.5231C202.9 96.5231 202.9 96.5231 202.9 96.5231V96.4231H203C205 95.7231 206.2 95.1231 206.3 95.0231L205.5 93.5231L204.5 91.4231C204.5 91.4231 203.8 91.8231 202.5 92.3231C198.7 91.0231 187.5 85.6231 187.5 69.2231C187.5 55.7231 195.6 49.1231 201.4 46.1231C201.3 46.5231 201.3 46.8231 201.3 47.2231C201.3 47.9231 201.4 48.6231 201.6 49.3231C199.3 51.2231 190.7 59.3231 194 72.2231C196.7 82.1231 206 89.5231 211.3 93.1231C213.6 94.6231 215.2 95.5231 215.2 95.5231L217 92.0231C217 92.0231 215.5 91.2231 213.4 89.8231C208.6 86.6231 200.1 79.9231 197.8 71.1231C195.2 60.9231 201.5 54.4231 203.7 52.6231C205 53.7231 206.7 54.4231 208.6 54.4231V50.4231C206.8 50.4231 205.3 48.9231 205.3 47.1231C205.3 45.3231 206.8 43.8231 208.6 43.8231H212.1V49.0231H218.9L223.7 52.8231H227.4V53.9231L225.4 55.8231C221.8 56.2231 219.1 59.3231 219.1 62.9231C219.1 66.9231 222.3 70.1231 226.3 70.1231V66.1231C224.6 66.1231 223.1 64.7231 223.1 62.9231C223.1 61.1231 224.5 59.7231 226.3 59.7231H227.1L231.5 55.5231V48.6231H225.2L220.4 44.8231H216.2V39.6231H207H206.6C206.4 39.7231 183.5 44.9231 183.5 68.9231C183.5 83.3231 191.3 90.5231 197 93.7231C194.2 94.4231 190.8 95.0231 187.3 95.1231C186.8 92.6231 185.2 89.6231 181.9 89.0231V45.0231H94.1001V89.3231C91.3001 90.2231 90.0001 92.9231 89.5001 95.2231C85.8001 95.2231 82.3001 94.5231 79.4001 93.7231C87.6001 87.1231 87.5001 76.9231 87.4001 76.4231L83.4001 76.5231C83.4001 76.6231 83.5001 87.0231 74.6001 92.1231C73.2001 91.6231 72.3001 91.1231 72.3001 91.1231L71.3001 93.2231L70.5001 94.7231C70.6001 94.8231 71.9001 95.4231 73.8001 96.1231C74.9001 96.5231 76.2001 96.9231 77.6001 97.4231C78.1001 97.5231 78.6001 97.7231 79.2001 97.8231C82.2001 98.6231 85.8001 99.1231 89.6001 99.1231C90.2001 99.1231 90.7001 99.1231 91.3001 99.1231L93.2001 99.0231V97.1231C93.2001 97.1231 93.3001 95.3231 94.0001 94.1231V100.823L78.0001 105.923C77.4001 105.223 76.7001 104.623 76.1001 104.023C75.6001 103.623 75.1001 103.223 74.7001 102.823C73.6001 101.923 72.4001 101.223 71.3001 100.623C69.5001 99.6231 67.8001 99.0231 66.5001 98.6231C65.2001 98.2231 64.4001 98.0231 64.3001 98.0231L63.6001 101.923C63.6001 101.923 65.8001 102.323 68.4001 103.623C66.4001 105.423 63.9001 106.923 61.0001 108.323C60.9001 108.323 60.8001 108.323 60.6001 108.323V108.523C58.4001 109.523 56.1001 110.423 53.4001 111.123C48.5001 112.523 45.9001 115.523 44.6001 118.023C44.0001 117.323 43.3001 116.723 42.5001 116.023L40.1001 119.223C45.4001 123.223 43.5001 129.023 43.5001 129.323L45.4001 129.923L47.3001 130.623C47.9001 128.823 48.3001 125.723 47.3001 122.523H47.4001C47.4001 122.523 47.4001 122.323 47.5001 122.023C49.0001 122.023 50.6001 122.623 51.9001 123.623C53.2001 124.723 53.9001 126.023 53.8001 127.323C53.7001 130.323 49.9001 132.023 49.8001 132.023L47.8001 132.923L56.0001 147.423H73.7001V145.423C73.7001 140.123 68.4001 137.923 65.5001 137.423H62.5001L62.2001 135.923C68.8001 131.523 70.0001 126.423 70.1001 126.223V126.023C70.2001 125.423 70.8001 120.023 67.6001 117.223L65.0001 120.223C66.3001 121.323 66.3001 124.223 66.2001 125.323C66.0001 125.923 64.7001 129.823 59.0001 133.123L57.8001 133.823L59.2001 141.323H65.0001C65.6001 141.423 67.7001 141.923 68.9001 143.323H58.1001L53.1001 134.523C54.9001 133.223 57.4001 130.923 57.6001 127.323C57.7001 124.823 56.5001 122.223 54.3001 120.423C52.8001 119.123 51.1001 118.323 49.2001 118.023C50.3001 116.723 51.9001 115.423 54.5001 114.723C57.1001 113.923 59.6001 113.123 61.8001 112.123C67.6001 112.423 69.6001 117.523 69.7001 117.723L71.6001 117.023L73.5001 116.323C72.7001 114.323 70.6001 111.123 67.0001 109.323C68.9001 108.123 70.5001 106.923 72.0001 105.523C73.3001 106.523 74.7001 107.723 75.8001 109.123L76.6001 110.223L94.2001 104.823V154.023H181.9V104.523L200.3 110.123L201.1 109.023C202.2 107.523 203.6 106.323 204.9 105.423C206.3 106.823 208 108.023 209.8 109.223C206.1 111.023 204 114.123 203.3 116.223L207 117.623C207.1 117.423 209.1 112.323 214.9 112.023C217.1 113.023 219.5 113.923 222.2 114.623C224.7 115.323 226.4 116.623 227.5 117.923C225.7 118.223 223.9 119.123 222.4 120.323C220.2 122.223 219 124.723 219.1 127.223C219.2 130.823 221.7 133.123 223.6 134.423L218.6 143.223H208C209.2 141.823 211.4 141.323 211.9 141.223H217.7L219.1 133.723L217.9 133.023C212.2 129.623 210.9 125.723 210.7 125.223C210.6 124.323 210.5 121.323 211.9 120.123L209.3 117.123C206.1 119.923 206.7 125.323 206.8 125.923V126.123C206.9 126.323 208.1 131.423 214.7 135.823L214.4 137.323H211.7H211.4C208.6 137.723 203.2 140.023 203.2 145.323V147.323H221L228.1 134.823L229.2 132.923L227.2 132.023C227.2 132.023 223.3 130.323 223.2 127.323C223.2 126.023 223.8 124.623 225.1 123.623C226.4 122.523 227.9 122.023 229.5 122.023C229.6 122.323 229.6 122.523 229.6 122.523H229.7C228.6 125.823 228.9 128.923 229.5 130.723ZM177.8 97.7231H152.7V81.6231H140V49.0231H177.8V97.7231ZM127.2 113.823V85.6231H148.8V113.823H127.2ZM136 49.0231V81.6231H123.2V97.7231H98.1001V49.0231H136ZM98.1001 101.723H123.2V117.823H136V150.423H98.1001V101.723ZM140 150.423V117.823H152.8V101.723H177.9V150.423H140Z" fill="#E08C5A"/>
<path d="M205.2 59.0231L203.3 58.5231C203 60.1231 201.1 67.3231 209.4 74.5231L212 71.5231C205.6 66.0231 207.1 59.8231 207.1 59.5231L205.2 59.0231Z" fill="#E08C5A"/>
<path d="M223.2 95.4231C227.5 87.4231 223.6 80.8231 220.9 78.5231L218.3 81.5231C218.5 81.7231 223.6 86.3231 219.7 93.5231L223.2 95.4231Z" fill="#E08C5A"/>
<path d="M216.902 51.7783L214.498 54.1825L216.902 56.5866L219.306 54.1825L216.902 51.7783Z" fill="#E08C5A"/>
<path d="M63.2 89.2231C63.6 89.1231 72.4 87.5231 74.5 77.0231L70.6 76.1231C69 83.9231 62.8 85.1231 62.5 85.2231L63.2 89.2231Z" fill="#E08C5A"/>
<path d="M250.3 128.023C250.3 128.023 246.5 127.623 245 123.223L241.2 124.523C243.5 131.423 249.7 132.023 250 132.023L250.3 128.023Z" fill="#E08C5A"/>
<path d="M117.5 39.4231H158.6L163 23.4231H113L117.5 39.4231ZM157.7 27.4231L155.5 35.4231H120.5L118.3 27.4231H157.7Z" fill="#E08C5A"/>
<path d="M115.7 18.7231C115.7 18.6231 111.1 9.52308 116.3 5.42308C118.3 3.82308 122.4 3.02308 130.5 6.82308C130.5 6.92308 130.5 7.02308 130.5 7.02308V19.5231H145.7V7.12308C145.7 7.02308 145.7 6.92308 145.7 6.92308C153.8 3.02308 157.8 3.92308 159.9 5.52308C165.1 9.52308 160.5 18.7231 160.5 18.7231L164.1 20.5231C164.4 20.0231 170.3 8.32308 162.4 2.22308C158.1 -1.17692 151.5 -0.576923 143 3.72308C141.6 3.02308 139.9 2.62308 138.2 2.62308C136.5 2.62308 134.8 3.02308 133.4 3.72308C124.8 -0.676923 118.3 -1.17692 114 2.22308C106.1 8.32308 112.1 20.0231 112.3 20.5231L115.7 18.7231ZM140.9 7.32308C141.2 7.42308 141.5 7.62308 141.6 7.72308V8.92308V15.6231H134.4V8.92308V7.72308C134.6 7.62308 134.8 7.42308 135.1 7.32308C135.8 7.02308 136.8 6.72308 138 6.72308C139.2 6.72308 140.2 7.02308 140.9 7.32308Z" fill="#E08C5A"/>
<path d="M138.131 29.0807L135.727 31.4848L138.131 33.889L140.535 31.4848L138.131 29.0807Z" fill="#E08C5A"/>
<path d="M125.224 29.0633L122.82 31.4674L125.224 33.8715L127.628 31.4674L125.224 29.0633Z" fill="#E08C5A"/>
<path d="M151.038 29.098L148.634 31.5021L151.038 33.9063L153.442 31.5021L151.038 29.098Z" fill="#E08C5A"/>
<path d="M119.3 121.923V108.023H115.3V121.923H101.3L117.3 147.523L133.3 121.923H119.3ZM126 125.923L119.2 136.723V125.923H126ZM115.3 125.923V136.723L108.5 125.923H115.3Z" fill="#E08C5A"/>
<path d="M144.4 66.1231L160.4 91.7231L176.4 66.1231H162.4V52.2231H158.4V66.1231H144.4ZM158.3 70.1231V80.9231L151.6 70.1231H158.3ZM169.1 70.1231L162.3 80.9231V70.1231H169.1Z" fill="#E08C5A"/>
<path d="M154.3 126.523L153.9 124.723L152.1 125.023C151 125.223 148.4 125.123 146.9 125.023L145.1 124.923L143.7 132.023L147.6 132.823L148.3 129.123C149.1 129.123 150.1 129.123 150.9 129.123C152.1 131.623 154.9 134.423 160.2 134.423C160.7 134.423 161.3 134.423 161.8 134.323L161.4 130.323C155.6 130.923 154.4 126.923 154.3 126.523Z" fill="#E08C5A"/>
<path d="M173.9 135.423C177.6 128.523 176 124.623 175.8 124.123L175.3 122.923H174C173.4 122.923 172.9 122.423 172.9 121.823C172.9 121.223 173.4 120.723 174 120.723V116.723C171.2 116.723 168.9 119.023 168.9 121.823C168.9 124.023 170.3 125.923 172.3 126.623C172.3 127.323 172.3 128.423 171.9 129.823C170.6 128.623 168.9 127.823 167 127.823V131.823C168.6 131.823 169.9 133.123 169.9 134.723C169.9 136.323 168.6 137.623 167 137.623L165.5 140.923L167.5 143.223L163.8 145.723L166.1 149.023L171.7 145.223L172.1 142.223L170.7 140.623C172.4 139.623 173.7 137.723 173.9 135.423Z" fill="#E08C5A"/>
<path d="M122.6 70.2231L122.2 72.0231C122.2 72.2231 121.1 76.5231 115 75.8231L114.6 79.8231C115.2 79.9231 115.7 79.9231 116.2 79.9231C121.4 79.9231 124.3 77.0231 125.5 74.6231C126.4 74.6231 127.3 74.6231 128.1 74.6231L128.8 78.3231L132.7 77.5231L131.3 70.4231L129.5 70.5231C128.1 70.6231 125.4 70.7231 124.3 70.5231L122.6 70.2231Z" fill="#E08C5A"/>
<path d="M105.9 86.3231L104.5 87.9231L104.9 90.9231L110.5 94.7231L112.8 91.4231L109.1 88.9231L111.1 86.6231L109.6 83.3231C108 83.3231 106.7 82.0231 106.7 80.4231C106.7 78.8231 108 77.5231 109.6 77.5231V73.5231C107.7 73.5231 106 74.3231 104.7 75.5231C104.3 74.0231 104.2 73.0231 104.3 72.3231C106.3 71.6231 107.7 69.7231 107.7 67.5231C107.7 64.7231 105.4 62.4231 102.6 62.4231V66.4231C103.2 66.4231 103.7 66.9231 103.7 67.5231C103.7 68.1231 103.2 68.6231 102.6 68.6231H101.3L100.8 69.8231C100.6 70.2231 99.0001 74.2231 102.7 81.1231C102.7 83.2231 104 85.2231 105.9 86.3231Z" fill="#E08C5A"/>
<path d="M112.6 66.0231C113.4 66.4231 114.3 66.7231 115.1 66.8231C114.7 67.4231 114.2 68.0231 113.6 68.4231L115.9 71.7231C119.6 69.2231 120.1 64.9231 120.1 64.7231L117.5 62.6231C115.4 63.3231 113.2 62.2231 112.5 60.1231C111.8 58.0231 112.9 55.8231 115 55.1231L113.7 51.3231C109.5 52.7231 107.3 57.2231 108.7 61.4231C109.3 63.4231 110.7 65.0231 112.6 66.0231Z" fill="#E08C5A"/>
<path d="M119.5 57.5231C119.5 57.5231 120.6 56.6231 123.2 57.9231L124.9 54.3231C119.7 51.9231 117 54.4231 116.7 54.7231L119.5 57.5231C119.6 57.5231 119.5 57.5231 119.5 57.5231Z" fill="#E08C5A"/>
<path d="M164.3 121.423C167.3 120.223 169.4 117.223 169.4 113.823C169.4 109.323 165.7 105.623 161.2 105.623L160 106.023L154.2 110.423L156.6 113.623L161.8 109.623C163.8 109.923 165.4 111.723 165.4 113.823C165.4 116.123 163.5 118.023 161.2 118.023L159.5 121.023L161.9 125.223L165.4 123.223L164.3 121.423Z" fill="#E08C5A"/>
<path d="M136.4 95.0231C137.2 94.6231 138.2 94.3231 139.2 94.3231C140.9 94.3231 142.3 94.9231 143.5 96.2231L146 93.9231C145.2 93.0231 144.2 92.2231 143 91.7231C141.8 91.2231 140.5 91.0231 139 91.0231C137.2 91.0231 135.7 91.4231 134.3 92.1231C132.9 92.8231 131.8 93.9231 131 95.2231C130.2 96.5231 129.8 98.0231 129.8 99.7231C129.8 101.423 130.2 102.823 131 104.223C131.8 105.523 132.9 106.523 134.3 107.323C135.7 108.023 137.3 108.423 139 108.423C140.2 108.423 141.4 108.223 142.6 107.823C143.8 107.423 144.8 106.923 145.8 106.223V99.4231H142.3V104.323C141.4 104.823 140.4 105.023 139.3 105.023C138.2 105.023 137.3 104.823 136.5 104.323C135.7 103.823 135 103.223 134.6 102.423C134.2 101.623 133.9 100.723 133.9 99.6231C133.9 98.5231 134.1 97.6231 134.6 96.8231C135 96.1231 135.6 95.5231 136.4 95.0231Z" fill="#E08C5A"/>
</svg>
