<svg width="40" height="40" viewBox="0 0 40 40" fill="none" xmlns="http://www.w3.org/2000/svg">
<path d="M28.125 10.9167L26.2084 12.8334M26.2084 12.8334L29.0834 15.7084L25.7292 19.0625L22.8542 16.1875M26.2084 12.8334L22.8542 16.1875M18.9154 20.1263C19.4103 20.6145 19.8036 21.1958 20.0729 21.8367C20.3421 22.4776 20.4819 23.1654 20.4843 23.8605C20.4866 24.5557 20.3514 25.2444 20.0864 25.8871C19.8215 26.5298 19.432 27.1137 18.9405 27.6052C18.4489 28.0968 17.865 28.4862 17.2223 28.7512C16.5797 29.0161 15.8909 29.1513 15.1958 29.149C14.5006 29.1467 13.8128 29.0069 13.1719 28.7376C12.5311 28.4684 11.9498 28.075 11.4615 27.5802C10.5014 26.5861 9.97012 25.2547 9.98213 23.8727C9.99414 22.4907 10.5485 21.1687 11.5257 20.1914C12.503 19.2142 13.825 18.6599 15.207 18.6478C16.589 18.6358 17.9204 19.1671 18.9145 20.1272L18.9154 20.1263ZM18.9154 20.1263L22.8542 16.1875" stroke="#6B6B6D" stroke-width="3" stroke-linecap="round" stroke-linejoin="round"/>
<path d="M20 0C8.96939 0 0 8.96939 0 20C0 31.0306 8.96939 40 20 40C31.0306 40 40 31.0306 40 20C40 8.96939 31.0306 0 20 0ZM20 36.6735C10.8061 36.6735 3.32653 29.1939 3.32653 20C3.32653 10.8061 10.8061 3.32653 20 3.32653C29.1939 3.32653 36.6735 10.8061 36.6735 20C36.6735 29.1939 29.1939 36.6735 20 36.6735Z" fill="#6B6B6D"/>
</svg>
