<svg width="274" height="47" viewBox="0 0 274 47" fill="none" xmlns="http://www.w3.org/2000/svg">
<path d="M4.68233 9.09051C6.02014 8.08715 7.52518 7.33464 9.36466 6.83296C11.2042 6.33128 13.0436 5.99683 14.9667 5.99683C17.726 5.99683 19.9835 6.33128 21.823 7.00018C23.5789 7.66909 24.8331 8.42161 25.6692 9.34135C26.4217 10.2611 26.8398 11.0972 26.8398 11.8497C26.8398 12.6023 26.5053 13.2712 25.8364 13.9401C25.1675 14.609 24.1642 14.9434 22.91 14.9434C22.0739 14.9434 21.4049 14.7762 20.736 14.4417C20.1508 14.1073 19.8163 13.6892 19.8163 13.2712C20.4016 13.1876 20.8197 12.9367 21.2377 12.6023C21.5722 12.2678 21.7394 11.9334 21.7394 11.5153C21.7394 10.3447 21.3213 9.25774 20.4852 8.25438C19.6491 7.25102 17.9768 6.74934 15.552 6.74934C12.96 6.74934 10.9533 7.58547 9.36466 9.17412C8.44492 10.1775 7.6924 11.4317 7.19072 13.0203C6.68905 14.609 6.43821 16.4485 6.43821 18.4552C6.43821 22.8031 7.35795 25.8967 9.19744 27.8198C9.94996 28.5724 10.7861 29.2413 11.8731 29.6593C12.8764 30.0774 13.9634 30.2446 15.134 30.2446C17.1407 30.2446 18.7293 29.5757 20.0671 28.3215C21.5722 26.8165 22.4083 24.4753 22.4083 21.298V19.3749H17.6424V18.3716H28.1776V21.2144C28.1776 24.0573 26.8398 26.3984 24.1642 28.2379C23.0772 28.9904 21.6558 29.5757 20.1508 30.0774C18.3949 30.4955 16.7226 30.6627 15.0504 30.6627C13.1273 30.6627 11.2878 30.4118 9.36466 29.8266C7.52518 29.3249 5.93653 28.5724 4.68233 27.6526C1.58865 25.3114 0 22.2178 0 18.3716C0 14.5254 1.58865 11.4317 4.68233 9.09051Z" fill="#E08C5A"/>
<path d="M50.335 19.793C50.7531 20.3783 50.9203 20.9635 50.9203 21.6325C50.9203 22.385 50.6695 23.0539 50.1678 23.8064C49.917 24.2245 49.4989 24.6425 48.9136 24.8934C48.4119 25.1442 47.8266 25.3114 47.3249 25.3114C46.8233 25.3114 46.4888 25.2278 46.1544 25.0606C46.3216 24.6425 46.3216 24.3917 46.3216 24.2245C46.3216 23.8064 46.1544 23.3047 45.9035 22.8866C45.6527 22.4686 45.2346 22.0505 44.8166 21.7997C44.3149 21.4652 43.8132 21.298 43.3115 21.298C42.0573 21.298 40.8867 22.4686 39.7998 24.8934V43.6227C39.7998 44.208 39.967 44.7933 40.3851 45.2113C40.7195 45.713 41.2212 45.9639 41.8065 46.1311L43.2279 46.3819V46.8H31.2712V46.3819L32.6927 46.1311C33.278 45.9639 33.7796 45.713 34.1141 45.2113C34.4485 44.7097 34.6994 44.208 34.6994 43.6227V21.0472C34.6994 20.4619 34.5321 19.8766 34.1141 19.4585C33.7796 18.9568 33.278 18.706 32.6927 18.5388L31.2712 18.2879V17.8699H39.7998V22.9703C40.5523 21.3816 41.5556 20.1274 42.8098 19.1241C44.064 18.1207 45.3182 17.7026 46.5724 17.7026C47.4086 17.7026 48.2447 17.9535 48.9136 18.4552C49.4989 18.706 49.917 19.2077 50.335 19.793Z" fill="#E08C5A"/>
<path d="M100.085 19.4586C99.7503 19.9603 99.4995 20.462 99.4995 21.0473V36.6829C99.4995 37.2682 99.6667 37.8535 100.085 38.2716C100.419 38.7733 100.921 39.0241 101.506 39.1913L102.928 39.4422V39.8602H94.4827V37.6027C93.7302 38.5224 92.8104 39.2749 91.6398 39.7766C90.5529 40.2783 89.2987 40.5291 88.1281 40.5291C86.6231 40.5291 85.2853 40.1947 83.9474 39.6094C82.6933 39.0241 81.6899 38.188 80.9374 37.101C80.1849 36.014 79.8504 34.7598 79.8504 33.3384V21.0473C79.8504 20.462 79.6832 19.8767 79.2651 19.4586C78.9307 18.957 78.429 18.7061 77.8437 18.5389L76.4223 18.2881V17.87H88.1281V18.2881L86.9575 18.5389C86.3722 18.7061 85.8706 18.957 85.5361 19.4586C85.2016 19.8767 84.9508 20.3784 84.9508 21.0473V33.004C84.9508 35.0107 85.2853 36.5157 86.0378 37.6027C86.7903 38.6896 87.7936 39.1913 89.0478 39.1913C89.884 39.1913 90.6365 38.9405 91.5562 38.4388C92.3924 37.9371 93.1449 37.2682 93.7302 36.5157C94.3155 35.6796 94.5663 34.8434 94.5663 33.9237V20.9637C94.5663 20.3784 94.3991 19.8767 93.981 19.375C93.6466 18.957 93.1449 18.6225 92.5596 18.4553L91.389 18.2044V17.7864H103.095V18.2044L101.673 18.4553C100.921 18.7061 100.503 18.957 100.085 19.4586Z" fill="#E08C5A"/>
<path d="M130.353 39.4421V39.8602H118.647V39.4421L119.818 39.1913C120.403 39.0241 120.904 38.7732 121.239 38.2715C121.573 37.8535 121.824 37.3518 121.824 36.6829V24.3082C121.824 22.3851 121.49 20.9636 120.737 19.9603C119.985 19.0405 118.981 18.5389 117.727 18.5389C116.891 18.5389 116.139 18.7897 115.219 19.2914C114.383 19.7931 113.63 20.3783 113.045 21.1309C112.46 21.8834 112.209 22.6359 112.209 23.3884V36.7665C112.209 37.3518 112.376 37.8535 112.794 38.3552C113.128 38.7732 113.63 39.1077 114.215 39.2749L115.386 39.4421V39.8602H103.68V39.4421L105.102 39.1913C105.687 39.0241 106.189 38.7732 106.523 38.2715C106.858 37.7699 107.108 37.2682 107.108 36.6829V21.0472C107.108 20.462 106.941 19.8767 106.523 19.4586C106.189 18.9569 105.687 18.7061 105.102 18.5389L103.68 18.288V17.87H112.209V20.1275C112.878 19.2078 113.881 18.5389 115.052 17.9536C116.222 17.4519 117.393 17.1174 118.647 17.1174C121.072 17.1174 122.995 17.7863 124.583 19.1241C126.172 20.462 126.925 22.2178 126.925 24.3082V36.6829C126.925 37.2682 127.092 37.8535 127.51 38.2715C127.844 38.7732 128.346 39.0241 128.931 39.1913L130.353 39.4421Z" fill="#E08C5A"/>
<path d="M153.012 38.2715C153.346 38.7732 153.848 39.024 154.433 39.1912L155.855 39.4421V39.8601H147.326V37.6026C146.574 38.5223 145.487 39.3585 143.982 40.0274C143.146 40.4454 142.142 40.6126 140.888 40.6126C139.55 40.6126 138.296 40.3618 137.042 39.7765C135.788 39.1912 134.701 38.4387 133.781 37.519C131.607 35.1778 130.52 32.2513 130.52 28.9068C130.52 25.3115 131.607 22.4686 133.865 20.2111C134.868 19.2913 136.039 18.5388 137.293 17.9535C138.631 17.4518 139.968 17.1174 141.39 17.1174C142.477 17.1174 143.647 17.2846 144.734 17.7027C145.821 18.0371 146.657 18.5388 147.243 19.1241V3.32122C147.243 2.73593 147.075 2.15063 146.657 1.73257C146.323 1.23089 145.821 0.980052 145.236 0.812825L143.815 0.561986V0.143921H152.343V36.6828C152.427 37.2681 152.594 37.7698 153.012 38.2715ZM139.049 21.2144C137.878 22.8867 137.293 25.3951 137.293 28.9068C137.293 32.1677 137.878 34.7597 139.049 36.5992C139.968 38.0206 141.055 38.7732 142.31 38.7732C143.313 38.7732 144.316 38.3551 145.236 37.6026C146.156 36.8501 146.825 35.9303 147.326 34.8433V21.6325C146.741 20.7963 146.156 20.1274 145.403 19.7094C144.651 19.2077 143.815 19.0405 142.895 19.0405C141.306 19.0405 140.052 19.793 139.049 21.2144Z" fill="#E08C5A"/>
<path d="M195.571 39.4421V39.8601H183.614V39.4421L185.036 39.1912C185.621 39.024 186.123 38.7732 186.457 38.2715C186.792 37.7698 187.042 37.2681 187.042 36.6828L187.126 12.5187C186.708 12.2678 186.374 11.9334 186.123 11.5989C185.872 11.2645 185.705 10.8464 185.705 10.5119C186.206 10.3447 186.708 10.0939 186.959 9.75943C187.293 9.34136 187.377 8.83969 187.377 8.33801C187.377 7.58549 187.126 6.83297 186.708 6.16407C186.29 5.41155 185.621 4.82626 184.785 4.32458C183.949 3.8229 182.945 3.57206 181.858 3.57206C178.347 3.57206 176.507 5.82962 176.507 10.2611V17.9535H184.534V19.3749H176.507V36.7665C176.507 37.3517 176.674 37.937 177.092 38.3551C177.427 38.8568 177.929 39.1076 178.514 39.2748L179.935 39.5257V39.9437H168.062V39.4421L169.484 39.1912C170.069 39.024 170.571 38.7732 170.905 38.2715C171.24 37.7698 171.49 37.2681 171.49 36.6828V19.2913H168.062V17.8699H171.49V10.1775C171.49 8.83969 171.908 7.58549 172.745 6.41491C173.581 5.16071 174.835 4.24097 176.507 3.40484C178.179 2.65232 180.103 2.23425 182.36 2.23425C184.116 2.23425 185.705 2.56871 187.21 3.23761C188.715 3.90651 189.885 4.74265 190.805 5.82962C191.725 6.91658 192.143 7.91994 192.143 8.9233V9.00691L192.059 36.6828C192.059 37.2681 192.226 37.8534 192.644 38.2715C192.979 38.7732 193.481 39.024 194.066 39.1912L195.571 39.4421Z" fill="#E08C5A"/>
<path d="M273.415 19.793C273.833 20.3783 274 20.9635 274 21.6325C274 22.385 273.749 23.0539 273.247 23.8064C272.997 24.2245 272.579 24.6425 271.993 24.8934C271.492 25.1442 270.906 25.3114 270.405 25.3114C269.903 25.3114 269.568 25.2278 269.234 25.0606C269.401 24.6425 269.401 24.3917 269.401 24.2245C269.401 23.8064 269.234 23.3047 268.983 22.8866C268.732 22.4686 268.314 22.0505 267.896 21.7997C267.395 21.4652 266.893 21.298 266.391 21.298C265.137 21.298 263.966 22.4686 262.879 24.8934V42.9538C262.879 43.5391 263.047 44.1244 263.465 44.5424C263.799 45.0441 264.301 45.295 264.886 45.4622L266.308 45.713V46.1311H254.351V45.713L255.772 45.4622C256.358 45.295 256.859 45.0441 257.194 44.5424C257.528 44.0408 257.779 43.5391 257.779 42.9538V21.0472C257.779 20.4619 257.612 19.8766 257.194 19.4585C256.859 18.9568 256.358 18.706 255.772 18.5388L254.351 18.2879V17.8699H262.879V22.9703C263.632 21.3816 264.635 20.1274 265.889 19.1241C267.144 18.1207 268.398 17.7026 269.652 17.7026C270.488 17.7026 271.324 17.9535 271.993 18.4552C272.579 18.706 272.997 19.2077 273.415 19.793Z" fill="#E08C5A"/>
<path d="M75.9207 34.4253C74.8337 36.2647 73.2451 37.7698 71.2384 38.9404C69.2317 40.0273 66.8905 40.6126 64.2149 40.6126C61.5393 40.6126 59.2817 40.0273 57.1914 38.9404C55.1847 37.7698 53.596 36.3484 52.5091 34.4253C51.4221 32.5858 50.8368 30.4954 50.8368 28.2379C50.8368 25.9803 51.4221 23.89 52.5091 22.0505C53.596 20.211 55.1847 18.706 57.1914 17.5354C59.1981 16.4485 61.5393 15.8632 64.2149 15.8632C66.8905 15.8632 69.1481 16.4485 71.2384 17.5354C73.2451 18.6224 74.8337 20.1274 75.9207 22.0505C77.0077 23.89 77.593 25.9803 77.593 28.2379C77.593 30.4954 77.0077 32.5858 75.9207 34.4253ZM71.322 22.5522C70.7367 20.7127 69.817 19.2913 68.6464 18.1207C67.4758 16.9501 65.9708 16.4485 64.2149 16.4485C62.459 16.4485 61.0376 17.0337 59.7834 18.2043C58.6128 19.3749 57.6931 20.8799 57.1078 22.6358C56.5225 24.4753 56.188 26.3148 56.188 28.2379C56.188 30.2446 56.5225 32.0841 57.1078 33.9236C57.6931 35.7631 58.6128 37.1845 59.7834 38.3551C60.954 39.5257 62.459 40.0273 64.2149 40.0273C65.9708 40.0273 67.3922 39.442 68.6464 38.2715C69.817 37.1009 70.7367 35.5958 71.322 33.84C71.9073 32.0005 72.2417 30.161 72.2417 28.2379C72.2417 26.3148 71.9073 24.3917 71.322 22.5522Z" fill="#E08C5A"/>
<path d="M221.324 34.4253C220.237 36.2647 218.648 37.7698 216.641 38.9404C214.635 40.0273 212.294 40.6126 209.618 40.6126C206.942 40.6126 204.685 40.0273 202.594 38.9404C200.588 37.8534 198.999 36.3484 197.912 34.4253C196.825 32.5858 196.24 30.4954 196.24 28.2379C196.24 25.9803 196.825 23.89 197.912 22.0505C198.999 20.211 200.588 18.706 202.594 17.5354C204.601 16.4485 206.942 15.8632 209.618 15.8632C212.294 15.8632 214.551 16.4485 216.641 17.5354C218.648 18.6224 220.237 20.1274 221.324 22.0505C222.411 23.89 222.996 25.9803 222.996 28.2379C222.996 30.4954 222.411 32.5858 221.324 34.4253ZM216.725 22.5522C216.14 20.7127 215.22 19.2913 214.049 18.1207C212.879 16.9501 211.374 16.4485 209.618 16.4485C207.862 16.4485 206.441 17.0337 205.186 18.2043C204.016 19.3749 203.096 20.8799 202.511 22.6358C201.926 24.4753 201.591 26.3148 201.591 28.2379C201.591 30.2446 201.926 32.0841 202.511 33.9236C203.096 35.7631 204.016 37.1845 205.186 38.3551C206.357 39.5257 207.862 40.0273 209.618 40.0273C211.374 40.0273 212.795 39.442 214.049 38.2715C215.22 37.1009 216.14 35.5958 216.725 33.84C217.31 32.0005 217.645 30.161 217.645 28.2379C217.645 26.3148 217.31 24.3917 216.725 22.5522Z" fill="#E08C5A"/>
<path d="M252.093 34.4253C251.006 36.2647 249.418 37.7698 247.411 38.9404C245.404 40.0273 243.063 40.6126 240.388 40.6126C237.712 40.6126 235.454 40.0273 233.364 38.9404C231.357 37.8534 229.769 36.3484 228.682 34.4253C227.595 32.5858 227.009 30.4954 227.009 28.2379C227.009 25.9803 227.595 23.89 228.682 22.0505C229.769 20.211 231.357 18.706 233.364 17.5354C235.371 16.4485 237.712 15.8632 240.388 15.8632C243.063 15.8632 245.321 16.4485 247.411 17.5354C249.418 18.6224 251.006 20.1274 252.093 22.0505C253.18 23.89 253.766 25.9803 253.766 28.2379C253.766 30.4954 253.18 32.5858 252.093 34.4253ZM247.495 22.5522C246.909 20.7127 245.99 19.2913 244.819 18.1207C243.648 16.9501 242.143 16.4485 240.388 16.4485C238.632 16.4485 237.21 17.0337 235.956 18.2043C234.786 19.3749 233.866 20.8799 233.28 22.6358C232.695 24.4753 232.361 26.3148 232.361 28.2379C232.361 30.2446 232.695 32.0841 233.28 33.9236C233.866 35.7631 234.786 37.1845 235.956 38.3551C237.127 39.5257 238.632 40.0273 240.388 40.0273C242.143 40.0273 243.565 39.442 244.819 38.2715C245.99 37.1009 246.909 35.5958 247.495 33.84C248.08 32.0005 248.414 30.161 248.414 28.2379C248.414 26.3148 248.08 24.3917 247.495 22.5522Z" fill="#E08C5A"/>
</svg>
