<svg width="40" height="40" viewBox="0 0 40 40" fill="none" xmlns="http://www.w3.org/2000/svg">
<path d="M20.0001 9.96936C16.7858 9.96936 14.1633 12.5918 14.1633 15.8061C14.1633 18.4387 15.9286 20.6836 18.3266 21.3979V30.0408C18.3266 30.9591 19.0715 31.704 19.9899 31.704C20.9082 31.704 21.6531 30.9591 21.6531 30.0408V21.3877C24.0613 20.6734 25.8164 18.4285 25.8164 15.7959C25.8368 12.5816 23.2144 9.96936 20.0001 9.96936ZM20.0001 18.3061C18.6225 18.3061 17.5001 17.1836 17.5001 15.8061C17.5001 14.4285 18.6225 13.3061 20.0001 13.3061C21.3776 13.3061 22.5001 14.4285 22.5001 15.8061C22.5001 17.1734 21.3776 18.3061 20.0001 18.3061Z" fill="#E08C5A"/>
<path d="M20 0C8.96939 0 0 8.96939 0 20C0 31.0306 8.96939 40 20 40C31.0306 40 40 31.0306 40 20C40 8.96939 31.0306 0 20 0ZM20 36.6735C10.8061 36.6735 3.32653 29.1939 3.32653 20C3.32653 10.8061 10.8061 3.32653 20 3.32653C29.1939 3.32653 36.6735 10.8061 36.6735 20C36.6735 29.1939 29.1939 36.6735 20 36.6735Z" fill="#E08C5A"/>
</svg>
