<svg width="106" height="61" viewBox="0 0 106 61" fill="none" xmlns="http://www.w3.org/2000/svg">
<path d="M84.8474 15.8695L83.3064 17.4123L84.8474 18.9551L86.3884 17.4123L84.8474 15.8695Z" fill="white"/>
<path d="M51.7373 34.7748C52.2821 34.502 52.9631 34.2975 53.6442 34.2975C54.8019 34.2975 55.7554 34.7066 56.5726 35.5929L58.2752 34.0248C57.7304 33.4111 57.0494 32.8657 56.2321 32.5248C55.4149 32.1838 54.5295 32.0475 53.508 32.0475C52.2821 32.0475 51.2606 32.3202 50.3071 32.7975C49.3536 33.2748 48.6045 34.0248 48.0597 34.9111C47.5148 35.7975 47.2424 36.8202 47.2424 37.9793C47.2424 39.1384 47.5148 40.0929 48.0597 41.0475C48.6045 41.9339 49.3536 42.6157 50.3071 43.1611C51.2606 43.6384 52.3502 43.9111 53.508 43.9111C54.3252 43.9111 55.1425 43.7748 55.9597 43.502C56.7769 43.2293 57.458 42.8884 58.139 42.4111V37.7748H55.7554V41.1157C55.1425 41.4566 54.4614 41.5929 53.7123 41.5929C52.9631 41.5929 52.3502 41.4566 51.8054 41.1157C51.2605 40.7748 50.7838 40.3657 50.5114 39.8202C50.239 39.2748 50.0347 38.6611 50.0347 37.9111C50.0347 37.1611 50.1709 36.5475 50.5114 36.002C50.7157 35.4566 51.1924 35.0475 51.7373 34.7748Z" fill="#FBFBFE"/>
<path d="M26.0621 28.2975C28.9225 24.2066 27.0156 20.7293 26.9475 20.593L24.5638 21.8884C24.6319 21.9566 25.6535 24.0702 23.8147 26.7293L26.0621 28.2975Z" fill="#FBFBFE"/>
<path d="M21.0907 30.2748L19.32 28.2293C18.0941 29.3202 16.2553 32.3202 18.2304 36.002L20.614 34.7066C19.2519 32.1157 20.9545 30.4793 21.0907 30.2748Z" fill="#FBFBFE"/>
<path d="M21.1665 15.859L19.6255 17.4017L21.1665 18.9445L22.7075 17.4017L21.1665 15.859Z" fill="#FBFBFE"/>
<path d="M18.9112 16.3657V16.2293L20.5457 14.9339H22.3164C22.9975 15.0021 29.944 15.7521 29.944 23.1839H32.6682C32.6682 15.0702 25.994 12.4111 22.4526 12.2066H19.5923L17.8897 13.6384C16.8 13.7748 15.7785 14.1157 14.8931 14.7293C13.5311 15.6839 12.5776 17.1157 12.3733 18.6157L15.0974 19.0248C15.2336 17.3884 17.1406 16.093 18.9112 16.3657Z" fill="#FBFBFE"/>
<path d="M101.181 43.2293C101.385 42.7521 101.589 42.343 101.657 41.8657C104.245 40.5021 105.675 37.4339 104.79 34.7066C104.654 33.9566 103.905 31.6384 99.8185 28.9793C96.5496 26.6611 96.0728 24.4111 96.0728 24.343C95.8685 23.1839 96.3452 21.8884 97.503 21.6157L97.0263 18.9566C94.234 19.5021 93.0082 22.3657 93.4168 24.7521C93.4849 25.093 94.0978 28.2293 98.3202 31.2293C101.521 33.343 102.066 34.9111 102.134 35.1839V35.2521L102.202 35.4566C102.611 36.7521 102.066 38.2521 100.976 39.1384C100.295 38.3202 99.2056 37.5021 97.5711 36.4793C96.0728 35.593 95.1194 34.7748 94.4383 34.1611C94.5064 34.093 94.5064 34.0248 94.5745 33.8884C94.9832 33.0702 95.3237 31.7748 94.6426 29.9339C93.8254 27.7521 91.578 26.6611 89.5349 25.7066C88.5814 25.2293 87.5599 24.7521 87.1512 24.343L87.0831 24.2748C86.7426 23.9339 86.5383 22.9793 86.5383 22.3657H89.1262C89.1262 21.8884 89.4668 21.5475 89.9435 21.5475H90.4883L92.5995 19.5021V13.843H89.5349L87.4918 12.2066H86.1297V10.7066H82.4521H81.771H81.4986C81.4305 10.7066 71.4193 13.0248 71.4193 23.5248C71.4193 28.2293 73.3943 31.2975 75.5736 33.2066C74.9607 33.2748 74.4158 33.2748 73.7348 33.2748C73.2581 31.9793 72.1684 30.6839 70.2615 30.6839H69.6486V15.8884H36.3459V30.7521H35.801C33.826 30.7521 32.7364 32.0475 32.3277 33.343C31.5105 33.343 30.6932 33.2748 30.0122 33.2066C32.3958 30.343 32.3958 26.8657 32.3958 26.7293L29.6717 26.7975C29.6717 26.9339 29.6717 30.6157 26.607 32.6611C25.9941 32.5248 25.5855 32.3884 25.5855 32.3884L25.1087 33.8202L24.7682 34.9793C24.8363 34.9793 25.2449 35.1157 25.9941 35.3202C26.6751 35.4566 27.6286 35.6611 28.7863 35.8657C28.9225 35.8657 29.0588 35.9339 29.195 35.9339C30.2165 36.0702 31.3062 36.1384 32.4639 36.1384C32.8045 36.1384 33.2131 36.1384 33.5536 36.1384L34.7795 36.0702L34.8476 34.843C34.8476 34.5702 34.9838 33.5475 35.8691 33.5475H36.414V37.2293L28.1053 38.593C27.9691 38.4566 27.8329 38.3202 27.6967 38.1839C27.6286 38.1157 27.4924 38.0475 27.4243 37.9111C26.6751 37.2293 25.926 36.7521 25.1768 36.343C24.2234 35.8657 23.338 35.5248 22.7932 35.3884C22.4527 35.2521 22.1803 35.2521 22.1803 35.2521L21.7036 37.9111C21.7036 37.9111 22.2484 38.0475 22.9975 38.3202C21.4992 39.2748 19.6604 39.9566 17.3449 40.5021C15.3018 40.9111 14.144 42.0021 13.3949 43.0248L13.3268 42.9566L11.6923 45.1384C13.3949 46.4339 13.0544 48.1384 12.9863 48.6839C11.6242 50.6612 9.8535 50.7975 9.7854 50.7975H8.15091L8.42333 52.4339C8.55953 53.3202 8.69574 53.593 8.76384 53.9339C8.83195 54.0702 8.83195 54.2748 8.90005 54.5475L9.17247 55.5021L10.1259 55.5702C10.1259 55.5702 10.807 55.6384 12.0328 55.843C12.2371 56.0475 12.4414 56.6612 12.6458 57.343H7.67418L5.69918 48.8884C7.9466 47.1157 8.35522 44.6612 7.67418 42.8884C7.53798 42.6157 7.40177 42.2748 7.26556 42.0702C6.92504 41.4566 6.92504 41.3202 6.99315 41.1839C7.12935 40.9111 7.67418 40.1611 9.8535 38.8657C11.8285 37.7066 13.0544 36.6157 13.8035 35.7975C14.0078 35.9339 14.2121 36.0021 14.4165 36.0702L15.3699 33.5475C15.2337 33.4793 13.8035 32.8657 14.0759 30.6157C14.2802 28.843 17.0044 27.2748 18.9794 26.1839C20.1372 25.5021 21.1587 24.9566 21.7717 24.2748C23.2018 22.9793 23.2018 20.593 23.1337 20.3202L20.8863 20.3884C18.9794 18.8202 16.732 18.8202 15.5742 19.1611L16.3234 21.7521C16.3915 21.7521 18.026 21.2748 19.388 22.6384C18.9113 22.9793 18.2303 23.3884 17.5492 23.7293C15.0294 25.1611 11.6242 27.1384 11.2837 30.2748C11.1475 31.7066 11.4199 32.7975 11.8966 33.6839C11.3518 34.2975 10.2621 35.3202 8.42333 36.4111C6.78884 37.4339 5.69918 38.2521 5.01814 39.0702C3.92848 38.1839 3.31555 36.6839 3.79227 35.3884L3.86038 35.3202V35.1157C3.92848 34.843 4.47331 33.2748 7.74229 31.1611C11.9647 28.1611 12.5777 25.093 12.6458 24.7521C13.0544 22.2975 11.8285 19.4339 9.03626 18.8884L8.55953 21.5475C9.7173 21.7521 10.194 23.1157 9.98971 24.2748C9.98971 24.343 9.51299 26.593 6.24401 28.9111C2.08968 31.6384 1.34054 33.8884 1.20433 34.7066C0.387085 37.4339 1.74916 40.5021 4.3371 41.8657C4.40521 42.2748 4.60952 42.7521 4.81383 43.2293C4.95004 43.4339 5.08624 43.6384 5.15435 43.843C5.42676 44.593 5.22245 46.0248 3.45175 47.1157L2.5664 47.593L5.49487 60.0021H15.7104L15.5742 58.5702C15.5061 57.4112 15.0294 53.5248 12.5777 53.1157C12.3052 53.0475 12.1009 53.0475 11.8966 52.9793C12.9863 52.5021 14.2802 51.6157 15.3018 49.9793L15.3699 49.843L15.438 49.7066C15.7104 49.0248 15.8466 47.7975 15.5742 46.5021C15.9147 46.5702 16.119 46.7066 16.2553 46.843C16.732 47.1839 17.0725 47.7293 17.0725 48.2748C17.1406 49.2975 16.4596 49.9111 16.4596 49.9111L15.7104 50.5248L17.9578 56.8657L27.8329 57.1384V55.7066C27.8329 51.4793 25.3131 49.9793 23.951 49.7748C25.8579 48.0021 26.2665 46.0248 26.3346 45.6157C26.4027 45.2066 26.7432 43.0248 25.3131 41.3202C25.1087 41.0475 24.8363 40.7748 24.4958 40.5702C24.8363 40.3657 25.1768 40.093 25.4493 39.8884C25.7898 40.1611 26.1303 40.5021 26.4027 40.9111L26.8794 41.5248L36.2778 39.9566V60.0021H69.5805V39.9566L78.9788 41.5248L79.4555 40.9111C79.7279 40.5021 80.0685 40.1611 80.409 39.8884C80.7495 40.1611 81.0219 40.3657 81.3624 40.5702C81.09 40.7748 80.8176 41.0475 80.5452 41.3202C79.115 43.0248 79.4555 45.2748 79.5236 45.6157C79.5917 46.0248 80.0004 48.0021 81.9073 49.7748C80.5452 49.9793 78.0253 51.4793 78.0253 55.7066V57.1384L87.9004 56.8657L89.8073 51.4112L90.0797 50.5248L89.3987 49.9111C89.3987 49.9111 88.7176 49.2975 88.7857 48.2748C88.8538 47.7293 89.1263 47.1839 89.603 46.843C89.7392 46.7066 90.0116 46.5702 90.284 46.5021C90.0116 47.7975 90.1478 48.9566 90.4202 49.7066L90.4883 49.843L90.5564 49.9793C91.578 51.6157 92.8719 52.5021 93.9616 52.9793C93.7573 52.9793 93.553 53.0475 93.2806 53.1157C90.8288 53.5248 90.3521 57.4112 90.284 58.5702L90.1478 60.0021H100.363L103.224 47.593L102.338 47.1157C100.568 46.093 100.363 44.593 100.636 43.843C100.976 43.6384 101.044 43.4339 101.181 43.2293ZM23.2018 43.093C23.7467 43.7748 23.6786 44.8657 23.6105 45.2066V45.2748C23.6105 45.343 23.2699 47.3202 20.9544 48.6839L20.0691 49.2293L20.9544 52.6384L23.5424 52.5702C23.8148 52.6384 24.5639 53.0475 24.9044 54.343L19.8648 54.2066L18.8432 51.343C19.388 50.593 19.8648 49.5021 19.7966 48.0702C19.6604 46.7066 18.9794 45.4793 17.8897 44.6611C17.413 44.3202 16.8682 44.0475 16.2553 43.843C16.6639 43.5702 17.1406 43.2975 17.8216 43.1611C18.9794 42.8884 20.001 42.6157 20.9544 42.2748C22.0441 42.343 22.7932 42.6157 23.2018 43.093ZM66.9244 36.5475H62.8382V26.1839H54.3933V18.6157H66.9244V36.5475ZM45.8804 46.9793V28.9111H60.1141V46.9793H45.8804ZM39.07 18.6157H51.6011V26.1839H43.1562V36.5475H39.07V18.6157ZM39.07 39.2748H43.1562V49.6384H51.6011V57.2748H39.07V39.2748ZM66.9244 57.2748H54.3933V49.7066H62.8382V39.2748H66.9244V57.2748ZM88.1047 44.6611C87.015 45.4793 86.334 46.7066 86.1978 48.0702C86.0616 49.4339 86.6064 50.593 87.1512 51.343L86.1297 54.2066L81.09 54.343C81.4305 52.9793 82.1797 52.6384 82.4521 52.5702L85.04 52.6384L85.9254 49.2293L85.04 48.6839C82.7245 47.3202 82.4521 45.343 82.384 45.2748V45.2066C82.3159 44.8657 82.2478 43.7748 82.7926 43.093C83.2012 42.6157 83.9504 42.343 84.9719 42.343C85.9254 42.6839 87.015 43.0248 88.1047 43.2293C88.7857 43.3657 89.2625 43.6384 89.6711 43.9112C89.1262 44.0475 88.5814 44.3202 88.1047 44.6611ZM98.3884 57.2748H93.4168C93.553 56.5248 93.8254 55.9793 94.0297 55.7748C95.2556 55.5702 95.9366 55.5021 95.9366 55.5021L96.8901 55.4339L97.1625 54.4793C97.2306 54.2066 97.2987 54.0702 97.2987 53.8657C97.4349 53.5248 97.503 53.2521 97.6392 52.3657L97.9116 50.7975L96.3452 50.7293C96.2771 50.7293 94.5064 50.6612 93.1444 48.6157C93.0082 48.1384 92.7357 46.3657 94.4383 45.0702L92.8038 42.8884L92.7357 42.9566C91.9866 41.9339 90.8288 40.9111 88.7857 40.4339C86.4702 39.9566 84.6314 39.2066 83.1331 38.2521C83.8823 37.9793 84.4271 37.843 84.4271 37.843L84.1547 36.4793L83.8823 35.1157C83.8142 35.1157 83.6098 35.1839 83.2693 35.2521C82.7245 35.3884 81.8391 35.7293 80.8857 36.2066C80.1366 36.6157 79.3874 37.093 78.6383 37.7748C78.5702 37.843 78.434 37.9111 78.3659 38.0475C78.2297 38.1839 78.0934 38.3202 77.9572 38.4566L69.6486 37.0248V33.343H70.2615C71.1469 33.343 71.2831 34.3657 71.2831 34.6384L71.3512 35.8657L72.577 35.9339C72.9176 35.9339 73.3262 35.9339 73.6667 35.9339C74.8245 35.9339 75.9141 35.8657 76.9357 35.7293C77.0719 35.7293 77.2081 35.7293 77.3443 35.6611C78.1615 35.5248 78.8426 35.4566 79.4555 35.3202L79.9322 35.1839C80.0004 35.1839 80.0685 35.1157 80.1366 35.1157C80.8857 34.9793 81.2943 34.843 81.3624 34.7748L81.0219 33.6157L80.5452 32.1839C80.5452 32.1839 80.2047 32.3202 79.6598 32.4566C77.8891 31.7066 74.1434 29.3884 74.1434 23.4566C74.1434 18.6157 76.7314 16.0248 78.9788 14.6611C79.0469 15.343 79.3193 15.9566 79.7279 16.5021C77.7529 18.0702 75.7098 20.9339 76.7995 25.093C77.9572 29.6611 83.4736 33.8884 86.8107 34.9793L87.628 32.3884C84.9038 31.5702 80.2728 27.8202 79.3874 24.4111C78.2297 20.0475 82.1116 18.1384 82.5202 17.9339L82.4521 17.7975V15.1384C81.9754 15.1384 81.5667 14.7293 81.5667 14.2521C81.5667 13.7748 81.9754 13.3657 82.4521 13.3657H83.4055V15.0021H86.6064L88.6495 16.6384H89.8754V18.4111L89.3306 18.9566C87.6961 19.2293 86.4021 20.6611 86.4021 22.4339L83.8142 22.3657C83.8142 22.6384 83.746 25.0248 85.1762 26.3202C85.9254 27.1384 87.1512 27.6839 88.3771 28.2293C89.9435 28.9793 91.7142 29.7975 92.0547 30.8884C92.3271 31.6384 92.3271 32.1839 92.1228 32.6611C91.7142 33.4111 90.7607 33.7521 90.7607 33.7521L91.1694 35.0475L91.578 36.343C91.6461 36.343 91.9866 36.2066 92.3952 36.0021C93.1444 36.8202 94.3702 37.7748 96.0728 38.7975C98.2522 40.093 98.797 40.843 98.9332 41.1157C99.0013 41.2521 99.0013 41.3884 98.6608 42.0021C98.5246 42.2748 98.3884 42.5475 98.2522 42.8202C97.5711 44.5248 97.9797 47.0475 100.227 48.8202L98.3884 57.2748Z" fill="#FBFBFE"/>
<path d="M44.1097 8.11569C44.1097 8.0475 42.4071 4.63841 44.1778 3.2066C44.8589 2.66114 46.3571 2.38841 49.2856 3.68387V9.2066H56.7089V3.68387C59.6374 2.32023 61.0676 2.59296 61.8167 3.2066C63.6555 4.63841 61.9529 8.11569 61.8848 8.11569L64.3365 9.34296C65.3581 7.2975 66.3796 3.27478 63.5193 1.02478C61.5443 -0.475222 58.752 -0.338859 55.0063 1.50205C54.3934 1.22932 53.7123 1.09296 53.0313 1.09296C52.3503 1.09296 51.6692 1.22932 51.0563 1.50205C47.3106 -0.338859 44.5183 -0.475222 42.5433 1.02478C39.6149 3.27478 40.6364 7.2975 41.7261 9.34296L44.1097 8.11569ZM53.9848 4.02478V6.47932H52.0098V4.02478C52.2141 3.9566 52.5546 3.82023 52.9632 3.82023C53.3718 3.82023 53.7805 3.9566 53.9848 4.02478Z" fill="#FBFBFE"/>
<path d="M63.996 11.1157H41.9985V13.843H63.996V11.1157Z" fill="#FBFBFE"/>
</svg>
