<svg width="55" height="55" viewBox="0 0 55 55" fill="none" xmlns="http://www.w3.org/2000/svg">
<path d="M52.0056 28.346L52.5159 27.5L52.0056 26.6541C51.925 26.5198 49.8438 23.1628 45.8154 19.8059C40.4578 15.3479 34.1333 12.9846 27.5537 12.9846C20.9741 12.9846 14.6362 15.3479 9.25171 19.8059C5.19653 23.1628 3.10181 26.5064 3.00781 26.6541L2.48413 27.5L3.00781 28.346C3.10181 28.4937 5.19653 31.8372 9.25171 35.1807C14.6362 39.6387 20.9741 42.002 27.5537 42.002C34.1467 42.002 40.4578 39.6387 45.8154 35.1807C49.8438 31.8372 51.9116 28.4802 52.0056 28.346ZM43.667 32.7771C38.8464 36.7651 33.4216 38.7793 27.5537 38.7793C21.6858 38.7793 16.2341 36.7517 11.3867 32.7771C8.87573 30.7092 7.17041 28.6279 6.33789 27.5C7.17041 26.3721 8.87573 24.2908 11.3867 22.2229C16.2476 18.2349 21.6858 16.2207 27.5537 16.2207C33.4216 16.2207 38.8464 18.2349 43.667 22.2229C46.1646 24.2908 47.8564 26.3855 48.6755 27.5C47.8564 28.6279 46.1646 30.7227 43.667 32.7771Z" fill="#E08C5A"/>
<path d="M27.5 17.8186C22.1558 17.8186 17.8186 22.1558 17.8186 27.5C17.8186 32.8442 22.1558 37.1814 27.5 37.1814C32.8442 37.1814 37.1814 32.8442 37.1814 27.5C37.1814 22.1558 32.8442 17.8186 27.5 17.8186ZM27.5 33.9587C23.9416 33.9587 21.0413 31.0583 21.0413 27.5C21.0413 23.9416 23.9416 21.0413 27.5 21.0413C31.0583 21.0413 33.9587 23.9416 33.9587 27.5C33.9587 31.0583 31.0583 33.9587 27.5 33.9587Z" fill="#E08C5A"/>
<path d="M3.22266 3.22266H9.94995V0H0V9.8291H3.22266V3.22266Z" fill="#E08C5A"/>
<path d="M45.05 0V3.22266H51.7773V9.8291H55V0H45.05Z" fill="#E08C5A"/>
<path d="M3.22266 45.1709H0V55H9.94995V51.7773H3.22266V45.1709Z" fill="#E08C5A"/>
<path d="M51.7773 51.7773H45.05V55H55V45.1709H51.7773V51.7773Z" fill="#E08C5A"/>
</svg>
