<svg width="40" height="40" viewBox="0 0 40 40" fill="none" xmlns="http://www.w3.org/2000/svg">
<path d="M19.9999 9.96938C16.7857 9.96938 14.1632 12.5918 14.1632 15.8061C14.1632 18.4388 15.9285 20.6837 18.3265 21.3979V30.0408C18.3265 30.9592 19.0714 31.7041 19.9897 31.7041C20.9081 31.7041 21.653 30.9592 21.653 30.0408V21.3877C24.0612 20.6735 25.8163 18.4286 25.8163 15.7959C25.8367 12.5816 23.2142 9.96938 19.9999 9.96938ZM19.9999 18.3061C18.6224 18.3061 17.4999 17.1837 17.4999 15.8061C17.4999 14.4286 18.6224 13.3061 19.9999 13.3061C21.3775 13.3061 22.4999 14.4286 22.4999 15.8061C22.4999 17.1735 21.3775 18.3061 19.9999 18.3061Z" fill="url(#paint0_linear)"/>
<path d="M20 0C8.96939 0 0 8.96939 0 20C0 31.0306 8.96939 40 20 40C31.0306 40 40 31.0306 40 20C40 8.96939 31.0306 0 20 0ZM20 36.6735C10.8061 36.6735 3.32653 29.1939 3.32653 20C3.32653 10.8061 10.8061 3.32653 20 3.32653C29.1939 3.32653 36.6735 10.8061 36.6735 20C36.6735 29.1939 29.1939 36.6735 20 36.6735Z" fill="url(#paint1_linear)"/>
<defs>
<linearGradient id="paint0_linear" x1="19.9898" y1="9.96938" x2="19.9898" y2="31.7041" gradientUnits="userSpaceOnUse">
<stop stop-color="#DF7856"/>
<stop offset="0.973958" stop-color="#C36851"/>
</linearGradient>
<linearGradient id="paint1_linear" x1="20" y1="0" x2="20" y2="40" gradientUnits="userSpaceOnUse">
<stop stop-color="#DF7856"/>
<stop offset="0.973958" stop-color="#C36851"/>
</linearGradient>
</defs>
</svg>
