<svg width="80" height="80" viewBox="0 0 80 80" fill="none" xmlns="http://www.w3.org/2000/svg">
<g clip-path="url(#clip0)">
<path d="M40.3267 80C39.32 80 38.41 79.3966 38.0233 78.4666C37.63 77.53 37.8433 76.4533 38.56 75.7333L48.0467 66.25C49.0233 65.2733 50.6067 65.2733 51.5833 66.25C52.56 67.2266 52.56 68.81 51.5833 69.7866L47.09 74.28C62.86 71 74.87 56.97 75.0033 40.31C75.0133 38.9366 76.1333 37.83 77.5033 37.83H77.5233C78.9033 37.84 80.0133 38.97 80.0033 40.35C79.8267 62.0366 62.0367 79.8266 40.3467 80C40.34 80 40.3333 80 40.3267 80Z" fill="#E08C5A"/>
<path d="M2.50004 42.1733C2.49338 42.1733 2.48671 42.1733 2.48004 42.1733C1.10004 42.1633 -0.00995585 41.0367 4.41519e-05 39.6533C0.173378 17.9633 17.9634 0.173333 39.6534 0C40.6934 0.0366667 41.5867 0.596667 41.9767 1.53333C42.3701 2.47 42.1567 3.54667 41.4401 4.26667L31.9567 13.75C30.98 14.7267 29.3967 14.7267 28.42 13.75C27.4434 12.7733 27.4434 11.19 28.42 10.2133L32.9134 5.72C17.1434 9.00333 5.13338 23.0333 5.00005 39.6933C4.99005 41.0667 3.87004 42.1733 2.50004 42.1733Z" fill="#E08C5A"/>
<path d="M29.3 76.6634C26.9933 76.6634 24.6867 75.7867 22.9333 74.03L5.97333 57.0734C4.27 55.37 3.33333 53.1067 3.33333 50.7C3.33333 48.2934 4.27 46.03 5.97333 44.33L44.3367 5.97002C47.8467 2.46002 53.56 2.46002 57.0667 5.97002L74.0267 22.9267C75.73 24.63 76.6667 26.8934 76.6667 29.3C76.6667 31.7067 75.73 33.97 74.0267 35.67L35.6633 74.03C33.91 75.7834 31.6033 76.6634 29.3 76.6634ZM50.7033 8.33336C49.6333 8.33336 48.6267 8.75002 47.87 9.50669L9.50999 47.8667C8.74999 48.6234 8.33333 49.63 8.33333 50.7C8.33333 51.77 8.74999 52.78 9.50999 53.5367L26.47 70.4934C27.98 72.0067 30.62 72 32.13 70.4934L70.49 32.1334C71.25 31.3767 71.6667 30.37 71.6667 29.3C71.6667 28.23 71.25 27.22 70.49 26.4634L53.5333 9.50669C52.7767 8.75002 51.77 8.33336 50.7033 8.33336Z" fill="#E08C5A"/>
<path d="M37.9467 69.7499C37.3067 69.7499 36.6667 69.5066 36.18 69.0166L10.98 43.8199C10.0033 42.8433 10.0033 41.2599 10.98 40.2833C11.9567 39.3066 13.54 39.3066 14.5167 40.2833L39.7167 65.4799C40.6933 66.4566 40.6933 68.0399 39.7167 69.0166C39.2267 69.5066 38.5867 69.7499 37.9467 69.7499Z" fill="#E08C5A"/>
</g>
<defs>
<clipPath id="clip0">
<rect width="80" height="80" fill="white"/>
</clipPath>
</defs>
</svg>
