<svg width="478" height="71" viewBox="0 0 478 71" fill="none" xmlns="http://www.w3.org/2000/svg">
<path d="M45.4 2C45.1 2.6 45 3.5 45 4.5C45 5.7 45.2 6.9 45.5 8C45.8 9.1 46.2 9.6 46.7 9.6C45.9 10.2 45.1 10.5 44.3 10.5C43.4 10.5 42.6 10.1 42 9.3C41.4 8.5 40.8 7.2 40.1 5.5C39.6 4.3 39.2 3.4 38.8 2.7C38.4 2.1 37.9 1.8 37.4 1.8H27.2V40.7C27.2 41.5 27.5 42.3 28 42.9C28.5 43.5 29.2 43.9 30 44L32.2 44.4V45H14.6V44.4L16.8 44C17.6 43.8 18.3 43.5 18.8 42.9C19.3 42.3 19.6 41.6 19.6 40.7V1.7H9.2C8.7 1.7 8.2 2 7.8 2.6C7.4 3.3 7 4.2 6.5 5.4C5.8 7.1 5.1 8.4 4.6 9.2C4 10 3.3 10.5 2.4 10.5C1.7 10.5 0.9 10.2 0 9.6C0.5 9.6 0.9 9.1 1.2 8C1.5 6.9 1.7 5.8 1.7 4.5C1.7 3.5 1.6 2.7 1.3 2C1.1 1.4 0.7 1 0.2 1V0.5H46.6V1C46.1 1 45.7 1.4 45.4 2Z" fill="#E08C5A"/>
<path d="M77.5001 44.4V45H62.0001V44.4L63.6001 44C64.4001 43.8 65.0001 43.4 65.5001 42.8C66.0001 42.2 66.2001 41.5 66.2001 40.7V24.3C66.2001 21.7 65.7001 19.6 64.8001 18.2C63.8001 16.8 62.5001 16 60.8001 16C59.8001 16 58.7001 16.3 57.5001 17C56.3001 17.7 55.4001 18.6 54.6001 19.6C53.8001 20.7 53.5001 21.8 53.5001 22.9V40.6C53.5001 41.4 53.7001 42.1 54.2001 42.7C54.7001 43.3 55.3001 43.7 56.1001 43.9L57.7001 44.3V45H42.1001V44.4L44.0001 44C44.8001 43.8 45.5001 43.4 45.9001 42.8C46.4001 42.2 46.6001 41.5 46.6001 40.7V4.7C46.6001 3.9 46.4001 3.2 45.9001 2.6C45.4001 2 44.8001 1.6 44.0001 1.4L42.1001 1V0.5H53.4001V18.1C54.3001 16.9 55.6001 16 57.1001 15.2C58.6001 14.5 60.2001 14.1 61.9001 14.1C63.5001 14.1 64.9001 14.3 66.3001 14.8C67.7001 15.3 68.8001 15.9 69.7001 16.7C71.8001 18.6 72.9001 20.9 72.9001 23.6V40.6C72.9001 41.4 73.1001 42.1 73.6001 42.7C74.1001 43.3 74.7001 43.7 75.5001 43.9L77.5001 44.4Z" fill="#E08C5A"/>
<path d="M105 34C105.8 35.1 106.3 36.3 106.3 37.6C106.3 39.1 105.7 40.5 104.6 41.8C103.4 43.1 101.9 44.1 99.9999 44.8C98.0999 45.5 96.0999 45.9 93.9999 45.8C91.8999 45.9 89.8999 45.6 87.8999 44.8C85.9999 44.1 84.3999 43 82.9999 41.7C79.8999 38.8 78.3999 35 78.3999 30.3C78.3999 25.5 79.7999 21.6 82.6999 18.7C83.8999 17.5 85.2999 16.5 87.0999 15.8C88.7999 15.1 90.5999 14.8 92.4999 14.8C94.3999 14.8 96.1999 15.1 97.8999 15.8C99.5999 16.5 101.1 17.5 102.3 18.7C104.4 20.9 105.7 23.7 106.2 27.2H85.9999C85.8999 28.2 85.7999 29.3 85.7999 30.3C85.7999 34.2 86.4999 37.4 87.9999 40.2C89.3999 42.9 91.4999 44.3 93.9999 44.3C95.3999 44.3 96.6999 43.7 97.7999 42.6C98.8999 41.5 99.4999 40.2 99.4999 38.9C99.4999 38.2 99.2999 37.6 98.7999 36.9C98.2999 36.2 97.6999 35.8 96.9999 35.7C96.9999 34.9 97.3999 34.2 98.1999 33.5C98.9999 32.8 99.9999 32.5 101 32.5C102.8 32.4 104.1 32.9 105 34ZM88.1999 18.9C87.1999 20.7 86.5999 22.9 86.2999 25.4H97.8999C97.5999 22.3 96.8999 20 95.9999 18.6C94.8999 16.9 93.6999 16.1 92.1999 16.1C90.3999 16.2 89.0999 17.1 88.1999 18.9Z" fill="#E08C5A"/>
<path d="M158.3 5.1C158.3 4.4 158.1 3.7 157.7 3.2C157.3 2.6 156.7 2.2 156 2L153 1V0.5H166V1L163 1.9C162.3 2.1 161.7 2.5 161.3 3.1C160.9 3.7 160.7 4.3 160.7 5.1V45.6H158.9L131.3 6.7V40.4C131.3 41.1 131.5 41.8 131.9 42.3C132.3 42.9 132.9 43.3 133.6 43.5L136.6 44.4V45H123.6V44.4L126.7 43.5C127.4 43.3 128 42.9 128.4 42.3C128.8 41.7 129 41.1 129 40.3V5C129 4.2 128.8 3.5 128.3 2.9C127.8 2.3 127.2 1.9 126.5 1.7L123.6 1V0.5H135.4L158.3 33V5.1Z" fill="#E08C5A"/>
<path d="M193.7 34C194.5 35.1 195 36.3 195 37.6C195 39.1 194.4 40.5 193.3 41.8C192.1 43.1 190.6 44.1 188.7 44.8C186.8 45.5 184.8 45.9 182.7 45.8C180.6 45.9 178.6 45.6 176.6 44.8C174.7 44.1 173.1 43 171.7 41.7C168.6 38.8 167.1 35 167.1 30.3C167.1 25.5 168.5 21.6 171.4 18.7C172.6 17.5 174 16.5 175.8 15.8C177.5 15.1 179.3 14.8 181.2 14.8C183.1 14.8 184.9 15.1 186.6 15.8C188.3 16.5 189.8 17.5 191 18.7C193.1 20.9 194.4 23.7 194.9 27.2H174.7C174.6 28.2 174.5 29.3 174.5 30.3C174.5 34.2 175.2 37.4 176.7 40.2C178.1 42.9 180.2 44.3 182.7 44.3C184.1 44.3 185.4 43.7 186.5 42.6C187.6 41.5 188.2 40.2 188.2 38.9C188.2 38.2 188 37.6 187.5 36.9C187 36.2 186.4 35.8 185.7 35.7C185.7 34.9 186.1 34.2 186.9 33.5C187.7 32.8 188.7 32.5 189.7 32.5C191.5 32.4 192.8 32.9 193.7 34ZM176.8 18.9C175.8 20.7 175.2 22.9 174.9 25.4H186.5C186.2 22.3 185.5 20 184.6 18.6C183.5 16.9 182.3 16.1 180.8 16.1C179.1 16.2 177.8 17.1 176.8 18.9Z" fill="#E08C5A"/>
<path d="M211.4 45.9H209.6L199.8 21.4C199.2 20.1 198.5 19 197.4 18.1C196.4 17.2 195.1 16.6 193.7 16.4L193.5 16.3V15.7H209.4V16.3C208.5 16.5 207.8 16.9 207.3 17.6C206.8 18.3 206.5 19 206.5 19.9C206.5 20.4 206.6 20.9 206.8 21.4L212.8 36.5L220.9 14.8H222.7L232.2 36.5L241.5 11.1C241.7 10.5 241.8 10.1 241.8 9.79999C241.8 8.99999 241.6 8.29999 241.1 7.69999C240.7 7.09999 240 6.69999 239.2 6.39999L237.8 5.99999V5.29999H250V5.89999L248.9 6.29999C247.7 6.69999 246.6 7.29999 245.7 8.19999C244.8 9.09999 244.1 10.1 243.7 11.3L230.9 46H229.1L219.6 24.2L211.4 45.9Z" fill="#E08C5A"/>
<path d="M296.8 33.4C296.4 37.1 294.7 40.2 291.7 42.7C290.3 43.8 288.8 44.7 286.9 45.4C285.1 46.1 283.2 46.4 281.2 46.4C278.4 46.4 275.8 45.9 273.4 44.9C270.9 43.9 268.8 42.5 267 40.6C262.8 36.3 260.6 30.5 260.6 23.2C260.6 15.9 262.7 10 266.9 5.7C268.6 3.9 270.7 2.5 273.1 1.5C275.5 0.5 278 0 280.5 0C284.2 0 287.2 0.6 289.6 1.8C292 3 293.6 4.5 294.7 6.2C295.7 7.9 296.3 9.5 296.3 10.9C296.3 12.3 295.9 13.6 295 14.9C294.1 16.1 292.8 16.8 291.1 16.8C290 16.8 289.1 16.5 288.3 15.8C287.5 15.1 287.1 14.4 287.1 13.6C287.9 13.4 288.5 13 288.9 12.4C289.4 11.7 289.6 11.1 289.6 10.4C289.6 8.2 289 6.1 287.9 4.2C286.8 2.3 284.6 1.3 281.4 1.3C278 1.3 275.2 2.8 273.1 5.8C270.6 9.5 269.3 15.3 269.3 23.2C269.3 31.2 270.6 37 273.2 40.6C274.3 42.2 275.6 43.3 277.1 44.1C278.6 44.8 280.3 45.2 282.2 45.2C283.6 45.2 285 44.9 286.4 44.3C287.8 43.7 289.2 42.9 290.5 41.8C291.7 40.8 292.8 39.5 293.6 38.1C294.4 36.6 294.9 35.1 295.2 33.4H296.8Z" fill="#E08C5A"/>
<path d="M331.7 44.9V45.5H316.2V44.9L317.8 44.5C318.6 44.3 319.2 43.9 319.7 43.3C320.2 42.7 320.4 42 320.4 41.2V24.8C320.4 22.2 319.9 20.1 319 18.7C318 17.3 316.7 16.5 315 16.5C314 16.5 312.9 16.8 311.7 17.5C310.5 18.2 309.6 19.1 308.8 20.1C308 21.2 307.7 22.3 307.7 23.4V41.1C307.7 41.9 307.9 42.6 308.4 43.2C308.9 43.8 309.5 44.2 310.3 44.4L311.9 44.8V45.4H296.4V44.8L298.3 44.4C299.1 44.2 299.8 43.8 300.2 43.2C300.7 42.6 300.9 41.9 300.9 41.1V5.1C300.9 4.3 300.7 3.6 300.2 3C299.7 2.4 299.1 2 298.3 1.8L296.4 1.4V1H307.7V18.6C308.6 17.4 309.9 16.5 311.4 15.7C312.9 15 314.5 14.6 316.2 14.6C317.8 14.6 319.2 14.8 320.6 15.3C322 15.8 323.1 16.4 324 17.2C326.1 19.1 327.2 21.4 327.2 24.1V41.1C327.2 41.9 327.4 42.6 327.9 43.2C328.4 43.8 329 44.2 329.8 44.4L331.7 44.9Z" fill="#E08C5A"/>
<path d="M363.3 44.9V45.5H352V42.5C351 43.8 349.5 44.8 347.6 45.7C346.5 46.2 345.2 46.5 343.5 46.5C339.9 46.5 337.2 45.8 335.1 44.4C333.1 43 332.1 41.1 332.1 38.6C332.1 37.4 332.5 36.2 333.4 35C334.2 33.8 335.5 32.8 337.1 31.9C338.8 30.9 341 30.1 343.6 29.6C346.2 29.1 349 28.8 351.9 28.8V25C351.9 22.2 351.5 20.1 350.8 18.9C350.1 17.7 348.6 17.1 346.5 17.1C345 17.1 343.8 17.4 342.8 18.1C341.9 18.8 341.4 19.8 341.4 21.2C341.4 21.9 341.6 22.5 342.1 23.2C342.6 23.9 343.2 24.3 343.9 24.4C343.9 25.2 343.5 25.9 342.7 26.6C341.9 27.3 340.9 27.6 339.9 27.6C338.1 27.6 336.8 27.1 336 26C335.2 24.9 334.7 23.7 334.7 22.4C334.7 21 335.3 19.8 336.4 18.7C337.5 17.6 339 16.8 340.8 16.3C342.6 15.7 344.5 15.4 346.4 15.4C350.1 15.4 353.1 16.3 355.3 18C357.5 19.7 358.6 22 358.6 24.9V41.3C358.6 42.1 358.8 42.8 359.3 43.4C359.8 44 360.4 44.4 361.2 44.6L363.3 44.9ZM352 30.6C348.4 30.6 345.6 31.3 343.7 32.7C341.8 34.1 340.8 36.2 340.8 39C340.8 40.6 341.2 41.9 342.1 42.9C343 43.9 344.1 44.5 345.3 44.5C346.2 44.5 347.1 44.3 347.8 43.8C348.5 43.4 349.3 42.7 350.2 41.9C351 41.1 351.5 40.3 351.9 39.3V30.6H352Z" fill="#E08C5A"/>
<path d="M396.1 30.8C396.1 35.5 394.6 39.3 391.7 42.2C390.4 43.5 388.9 44.5 387.1 45.3C385.4 46 383.5 46.4 381.6 46.4C380 46.4 378.6 46.2 377.2 45.7C375.8 45.2 374.7 44.6 373.9 43.8V66.4C373.9 67.2 374.1 67.9 374.6 68.5C375.1 69.1 375.7 69.5 376.5 69.7L378.4 70.1V70.7H362.5V70.1L364.4 69.7C365.2 69.5 365.9 69.1 366.3 68.5C366.8 67.9 367 67.2 367 66.4V20.4C367 19.6 366.8 18.9 366.3 18.3C365.8 17.7 365.2 17.3 364.4 17.1L362.5 16.7V16.1H374V19.1C375 17.9 376.2 17 377.7 16.2C379.2 15.5 380.8 15.1 382.4 15.1C384.1 15.1 385.8 15.5 387.5 16.2C389.2 16.9 390.6 17.9 391.8 19.2C394.7 22.5 396.1 26.3 396.1 30.8ZM385.6 40.1C386.8 37.6 387.4 34.5 387.4 30.8C387.4 27.3 386.8 24.2 385.7 21.6C384.6 19 382.9 17.7 380.7 17.7C379.3 17.7 378.1 18.2 376.8 19.3C375.6 20.3 374.6 21.6 374 23V40.3C374.7 41.4 375.6 42.3 376.7 42.9C377.8 43.5 378.9 43.8 380 43.8C382.6 43.9 384.4 42.6 385.6 40.1Z" fill="#E08C5A"/>
<path d="M417.8 16.2V18.1H409V37.1C409 39.3 409.5 41.1 410.4 42.4C411.3 43.8 412.5 44.4 414 44.4C415.7 44.4 417 43.9 417.9 43C418.8 42.1 419.3 40.6 419.6 38.6H422C421.8 40.9 421 42.8 419.4 44.2C417.8 45.6 415.8 46.3 413.3 46.3C410 46.3 407.3 45.5 405.3 43.9C403.3 42.3 402.3 40.2 402.3 37.7V18.1H395.8V16.2C397.7 16.2 399.5 15.7 401 14.8C402.6 13.8 403.9 12.5 404.8 10.8C405.7 9.09998 406.2 7.19998 406.2 5.09998H408.9V16.2H417.8Z" fill="#E08C5A"/>
<path d="M449.3 34.4C450.1 35.5 450.6 36.7 450.6 38C450.6 39.5 450 40.9 448.9 42.2C447.7 43.5 446.2 44.5 444.3 45.2C442.4 45.9 440.4 46.3 438.3 46.2C436.2 46.3 434.2 46 432.2 45.2C430.3 44.5 428.7 43.4 427.3 42.1C424.2 39.2 422.7 35.4 422.7 30.7C422.7 25.9 424.1 22 427 19.1C428.2 17.9 429.6 16.9 431.4 16.2C433.1 15.5 434.9 15.2 436.8 15.2C438.7 15.2 440.5 15.5 442.2 16.2C443.9 16.9 445.4 17.9 446.6 19.1C448.7 21.3 450 24.1 450.5 27.6H430.3C430.2 28.6 430.1 29.7 430.1 30.7C430.1 34.6 430.8 37.8 432.3 40.6C433.7 43.3 435.8 44.7 438.3 44.7C439.7 44.7 441 44.1 442.1 43C443.2 41.9 443.8 40.6 443.8 39.3C443.8 38.6 443.6 38 443.1 37.3C442.6 36.6 442 36.2 441.3 36.1C441.3 35.3 441.7 34.6 442.5 33.9C443.3 33.2 444.3 32.9 445.3 32.9C447.1 32.9 448.5 33.4 449.3 34.4ZM432.5 19.4C431.5 21.2 430.9 23.4 430.6 25.9H442.2C441.9 22.8 441.2 20.5 440.3 19.1C439.2 17.4 438 16.6 436.5 16.6C434.7 16.7 433.4 17.6 432.5 19.4Z" fill="#E08C5A"/>
<path d="M477.3 18.7C477.8 19.5 478.1 20.3 478.1 21.2C478.1 22.2 477.8 23.1 477.1 24.1C476.7 24.7 476.2 25.2 475.4 25.5C474.7 25.8 474 26 473.2 26C472.6 26 472.1 25.9 471.7 25.6C471.9 25.1 472 24.7 472 24.5C472 23.9 471.8 23.3 471.5 22.7C471.1 22.1 470.7 21.6 470.1 21.3C469.4 20.9 468.8 20.7 468.1 20.7C466.4 20.7 464.8 22.3 463.4 25.5V50.3C463.4 51.1 463.6 51.8 464.1 52.4C464.6 53 465.2 53.4 466 53.6L467.9 54V54.6H452V54L453.9 53.6C454.7 53.4 455.4 53 455.8 52.4C456.3 51.8 456.5 51.1 456.5 50.3V20.5C456.5 19.7 456.3 19 455.8 18.4C455.3 17.8 454.7 17.4 453.9 17.2L452 16.8V16.2H463.3V22.9C464.3 20.8 465.6 19.1 467.3 17.8C469 16.5 470.6 15.9 472.3 15.9C473.4 15.9 474.5 16.2 475.4 16.9C476.1 17.4 476.8 18 477.3 18.7Z" fill="#E08C5A"/>
</svg>
